<?xml version="1.0" encoding="utf-8"?>
<!-- Generator: Adobe Illustrator 18.1.1, SVG Export Plug-In . SVG Version: 6.00 Build 0)  -->
<svg version="1.1" xmlns="http://www.w3.org/2000/svg" xmlns:xlink="http://www.w3.org/1999/xlink" x="0px" y="0px"
	 viewBox="-345 257 100 100" enable-background="new -345 257 100 100" xml:space="preserve">
<g id="Capa_3">
	<circle fill="#A8CCA3" cx="-292.8" cy="309.5" r="47.8"/>
</g>
<g id="Capa_4">
	<g id="Layer_1_2_">
		<g>
			<path fill="#2F353A" d="M-278.3,295.1c0.3,0.4,0.5,1,0.6,1.5c0,0.1,0,0.1,0.1,0.2c0.3,0.4,0.3,1,1,0.9c0.6-0.1,1.1-0.9,1.2-1.4
				c0.1-0.3,0.1-0.7,0.1-1.1c0-0.2,0.7-1,0.7-0.7c0,0.2,0.1,0.3,0.2,0.5c0.3,0.6,0.9,0.9,1.5,1.1c0.9,0.3,1.9,0.5,2.5,1.3
				c0.6,0.7,0.4,2,0.5,2.8c0.2,1.7,1.4,2,2.9,1.4c0.1-0.1,0.2-0.2,0.2-0.3c-0.1-0.7-0.8-1-0.6-1.7c0.2-0.8,0.8-1.4,0.8-2.3
				c0.1-1.6-0.8-3-2-3.9c-1.4-1-3.1-1-4.7-1.3c-1-0.2-1.7-0.1-2.1,0.7c-0.2-0.4-0.6-0.7-1-0.7c-0.8,0-0.7,0.5-0.9,1.1c0,0,0,0,0,0.1
				c-0.2,0.6-0.6,1.1-0.9,1.7C-278.4,294.9-278.4,295-278.3,295.1z M-275.7,293.4c0,0.3,0.5,0.2,0.5-0.1c0,0,0,0,0,0
				c0.4-1.5,2-0.9,3.1-0.7c1.8,0.2,3,0.6,4.2,2c1.3,1.4,0.8,2.9,0.1,4.5c-0.5,1.2,0.2,1.1,0.5,2.1c-0.6,0.2-1.4,0.5-1.8-0.1
				c-0.3-0.4-0.3-1-0.3-1.4c-0.1-0.9,0-1.8-0.5-2.6c-1-1.6-3.8-0.9-4.1-3c0-0.1-0.1-0.2-0.2-0.2c-0.8,0-1.2,0.3-1.4,1.1
				c-0.1,0.5-0.1,1.1-0.3,1.6c-0.1,0.2-0.6,0.8-0.8,0.4c-0.1-0.2-0.2-0.3-0.3-0.5c-0.1-0.5-0.4-1.2-0.7-1.6c0.3-0.5,0.6-1.1,0.8-1.7
				c0,0,0,0,0,0c0-0.1,0.1-0.2,0.1-0.3C-276.7,292.2-275.8,292.9-275.7,293.4z"/>
			<path fill="#2F353A" d="M-246.3,300.5c-0.1-5.4-2.2-10.7-5.5-14.9c-2-2.6-4.5-4.8-7.1-6.8c-1.9-1.5-4.3-2.4-6.6-3.2
				c-1.8-0.6-3.7-1.1-5.6-1.5c0.3-0.2,0.4-0.4,0.5-0.7c0.4-1.6-2-2.6-3.6-3.1c0,0-0.1,0-0.1-0.1c-0.2-0.1-0.4-0.1-0.6-0.2
				c0,0-0.1,0-0.1,0c-0.1,0-0.1,0-0.2,0c-1.4-0.1-3.4,0.2-4.1,1.2c-1.1,1.5,1.6,2.4,2.8,2.7c-0.3,0.3-0.3,0.7-0.3,1
				c0,0.1,0,0.1-0.1,0.4c-0.1,0.5-0.2,1-0.3,1.5c-0.1,0.6-0.3,1.3-0.5,1.9c-1.5,0-3,0-4.5,0.3c-4.8,0.7-9.2,3.4-12.4,7
				c-6.1,7-8.2,18-4.5,26.6c1.1,2.5,2.5,4.8,4.1,7c1.7,2.2,4.1,3.9,6.6,5.3c2.4,1.3,5.1,2,7.9,2.3c-0.2,0.7-0.3,1.4-0.4,2.2
				c-0.4-0.1-0.8-0.1-1.2-0.2c-1.5-0.2-2.3,1.6-1.5,2.5c-3.1,0.9-6.3,2.6-7.3,5.6c-1.7-0.2-2.4,2.5-0.6,2.8c3.3,0.7,6.5,1.5,9.8,1.7
				c1.8,0.1,3.6,0.1,5.5-0.1c1.9-0.2,3.7-0.9,5.6-1.2c1.7-0.3,1.1-2.8-0.5-2.8c-0.4-1.2-0.8-2.6-1.6-3.6c-0.5-0.6-1.1-1-1.7-1.4
				c0.7,0,1.4-0.1,2.1-0.1c3.1-0.3,6-1.4,8.9-2.7c5.4-2.4,10.5-6.2,13.2-11.6C-247.5,312.9-246.1,306.4-246.3,300.5z M-278.2,271.6
				c0.8-0.5,2.1-0.7,3.1-0.6c1.2,0.3,2.9,0.8,3.6,1.8c0.3,0.5-1.5,0.6-1.6,0.6c-0.8,0-1.6-0.1-2.4-0.3
				C-276,273.1-279.2,272.2-278.2,271.6z M-275.1,281.2c-1.5,0-2.9,0-4.4,0.2c-0.3,0-0.3,0.5,0,0.5c2.4-0.3,4.9-0.2,7.4-0.1
				c0.7,0.2,1.4,0.4,2.1,0.6c-2.4,0.1-4.8,0.4-7.2,0.5c-0.3,0-0.3,0.5,0,0.5c2.8,0,5.6-0.5,8.4-0.5c0.9,0.4,1.7,0.8,2.6,1.2
				c-2.5-0.1-5.1-0.2-7.6,0c-0.3,0-0.3,0.5,0,0.5c2.8-0.3,5.7-0.1,8.6,0c0.1,0,0.1,0.1,0.2,0.1c0.3,0.2,0.6,0.4,0.9,0.6
				c-2.1,0-4.2-0.2-6.3,0.1c-0.3,0-0.2,0.5,0.1,0.5c2.3-0.3,4.6-0.1,6.8-0.1c0,0,0,0,0,0c0.3,0.3,0.7,0.5,1,0.8
				c-1.9,0-3.7,0-5.6-0.1c-0.1,0-0.2,0.1-0.2,0.2c-1.1-0.3-2.5-0.1-3.5-0.3c-1.2-0.2-1.8-2.1-3.1-2c-1,0.1-2,0.3-2.9,0.6
				c0,0,0,0,0,0c-0.4,0.1-0.8,0.4-1.2,0.6c-0.3,0.2-0.6,0.3-0.9,0.5c-0.2,0.1-0.4,0.2-0.5,0.2c-0.1,0-0.2,0-0.2,0.1c0,0,0,0,0,0
				c0,0,0,0,0,0c-0.4,0.6-0.5,1.2-0.6,1.9c-0.2,0.7-1.2,1.2-1.7,1.6c-0.9,0.6-2.3,1.7-3.6,1.8c0.6-1.5,2.5-2.1,2.6-3.8
				c0-0.1-0.1-0.3-0.2-0.2c-0.4,0-0.7,0-1.1,0c0.2-0.3,0.3-0.5,0.4-1c0-0.6-0.3-1.1,0.3-1.6c0.4-0.3,0.9-0.4,1.2-0.7
				c0.3-0.2,0.5-0.6,0.4-1c-0.1-0.7-0.5-1.2-0.6-1.8C-280.7,280.9-277.8,280.8-275.1,281.2z M-264.6,290c1.9,0,3.8,0,5.6-0.1
				c0.3,0.3,0.5,0.6,0.8,1c-1.2,0-3.3,0-4.4,0.3c-0.2-0.1-0.4-0.3-0.5-0.5c-0.1-0.1-0.2-0.1-0.3,0c-0.1,0-0.2,0.1-0.2,0.1
				c-0.1,0-0.2,0.1-0.2,0.2c-0.1,1.3,1,1.7,1.4,2.8c-1.6-0.2-3-0.4-3.7-2.1c-0.4-1-0.7-1.8-1.7-2.3c0.3-0.4,0.5-0.6,1.2-0.7
				c0.1,0,0.2-0.1,0.2-0.1c0,0,0,0,0.1,0c2-0.1,4.1-0.1,6.1-0.1c0.3,0.3,0.6,0.7,0.9,1c-1.7,0.1-3.5,0.1-5.2,0.1
				C-264.9,289.5-264.9,290-264.6,290z M-275,325C-275.1,324.9-275.1,324.9-275,325c0.1-0.1,0.2-0.1,0.3,0
				C-274.8,324.9-274.9,325-275,325z M-272.7,324.6c-0.9,0-1.8-0.1-2.7-0.2c-0.1-0.2-0.1-0.5-0.1-0.7c1.3,0.2,2.6,0.4,4,0.6
				C-271.9,324.4-272.3,324.5-272.7,324.6z M-270.5,323.9c-1.7-0.2-3.3-0.5-5-0.7c0-0.2,0-0.4,0-0.6c2.2,0,4.4,0.3,6.6,0.6
				C-269.4,323.5-269.9,323.7-270.5,323.9z M-266.4,322c-2.2-0.4-4.3-0.9-6.5-1.1c-0.3,0-0.3,0.5,0,0.5c2,0.1,3.9,0.6,5.8,1
				c-0.3,0.2-0.6,0.3-1,0.5c-2.5-0.3-4.9-0.7-7.4-0.8c-0.1-0.5-0.3-0.9-0.8-1.2c0.4-0.3,1.1-0.8,1.2-0.9c0.2-0.2,0.3-0.4,0.2-0.7
				c-0.1-0.7-1.8-0.7-2.2-0.8c-1.5-0.3-3-1-4.3-1.8c-1.3-0.8-1.7-2.2-3.1-2.9c0.4-1.7,0.6-3.6-0.7-5c-0.1-0.1-0.4,0-0.4,0.2
				c0.1,0.6,0,1.2-0.1,1.8c-1.2-1.8-0.9-4.2-0.5-6.2c0.2-0.9-0.1-1.6-0.4-2.4c-0.3-0.9,0-2,0.1-2.9c0.1-1.2-0.5-1.8-1.4-2.5
				c-0.6-0.4-1.3-0.7-2-1.1c-0.4-0.2-0.8-0.7-0.1-0.8c0.3,0,0.6,0,0.9,0.1c0.2,0,0.4-0.1,0.3-0.3c-0.2-0.5,0.1-0.6,0.3-1
				c0,0,0,0,0,0c0.4,0.3,0.7,0.7,1.2,0.9c0.7,0.2,1.4-0.3,2.1-0.4c0.3,0,0.5,0,0.8-0.1c0.4-0.1,1.1,0,0.7,0.5
				c-0.2,0.2-0.3,0.5-0.2,0.7c0.7,1.3,1.5,1.9,2.8,2.6c1.5,0.9,3.5,1.5,2.4,3.7c-0.7,1.4-1.1,2.4-0.7,4c0.1,0.5,0.3,1.1,0.9,1
				c0.6-0.2,1-1.1,1.3-1.6c0.3-0.5,0.7-1.6,1.2-2c0.9,1.1,2.5,1.2,3.8,1.6c1,0.3,1.6,1.5,2.6,1.8c-0.3,0.3-0.9,0.7-1.2,0.7
				c-0.3,0-0.9-0.1-1.2,0.2c-0.2,0.2-0.2,0.5,0,0.7c0.4,0.6,0.5,0.6-0.2,1.1c-0.5,0.3-1.1,0.5-1.6,0.8c-0.6,0.3-1.3,0.8-1.6,1.5
				c-0.3,0.7-0.2,2.5-0.8,2.9c-1,0.6-2.5,0.1-3.5,0.8c-0.7,0.5,0.3,1.5,0.7,1.7c1.1,0.4,2.2,0.7,3.3,1.1c1.5,0.5,2.6-0.6,3.9-1.1
				c1.2-0.5,2.8-0.3,4.1-0.3c1,0,1.9-0.2,2.7-0.6c0,0.2,0.1,0.4,0.1,0.6c-0.4,0-0.8,0-1.2,0c-0.3,0-0.3,0.5,0,0.5c0.4,0,0.8,0,1.2,0
				c0,0.1,0,0.1-0.1,0.2c0,0.1,0,0.3,0.2,0.3c0.5,0.1,1,0.4,1.5,0.5c0,0.1,0,0.3,0,0.4c-1.4-0.1-2.8-0.2-4.2-0.3
				c-0.3,0-0.3,0.5,0,0.5c1.4,0.1,2.8,0.2,4.2,0.3c0,0.4-0.1,0.8-0.1,1.1c-1.8-0.2-3.5-0.4-5.3-0.8c-0.3-0.1-0.4,0.4-0.1,0.5
				c1.7,0.4,3.4,0.6,5.2,0.8c-0.4,0.3-0.8,0.5-1.1,0.8c-1.9-0.2-3.7-0.6-5.6-1.1c-0.3-0.1-0.4,0.4-0.1,0.5c1.7,0.4,3.4,0.8,5.1,1
				C-265.9,321.7-266.2,321.8-266.4,322z M-263.1,319.7c0.1-0.3,0.1-0.7,0.1-1c0.3,0,0.7,0,1,0.1
				C-262.3,319.1-262.7,319.4-263.1,319.7z M-261.4,318.4c-0.5,0-1-0.1-1.6-0.1c0-0.2,0-0.4,0-0.6c0-0.1-0.1-0.2-0.2-0.2
				c-0.5-0.1-0.9-0.3-1.4-0.5c0,0,0,0,0,0c1.4,0.1,2.9,0.3,4.3,0.4C-260.6,317.7-261,318-261.4,318.4z M-259.9,316.9
				c-1.6-0.2-3.1-0.4-4.7-0.5c0-0.2,0-0.4,0-0.6c1.8-0.1,3.6,0,5.4,0.3C-259.4,316.4-259.6,316.7-259.9,316.9z M-255.1,307.6
				c-0.1,0-0.2,0-0.3,0c0.1-0.1,0.2-0.1,0.3-0.2C-255,307.5-255,307.6-255.1,307.6z M-254.9,306.9c-0.5,0.2-0.9,0.4-1.3,0.7
				c-0.2,0-0.4,0-0.5,0c-0.1-0.3-0.1-0.7-0.2-1c0.7,0,1.4,0,2.1,0C-254.8,306.7-254.9,306.8-254.9,306.9z M-254.7,306
				c-0.8,0-1.5,0-2.3,0c-0.1-0.4-0.2-0.8-0.3-1.2c0.9,0,1.8,0.1,2.7,0.3C-254.6,305.4-254.7,305.7-254.7,306z M-257.4,304.4
				c-0.1-0.3-0.1-0.6-0.2-0.9c1.1,0,2.1,0,3.2,0.2c0,0.3-0.1,0.6-0.1,1C-255.5,304.5-256.4,304.4-257.4,304.4z M-257.6,299.8
				c1.1,0.1,2.1,0.2,3.2,0.3c0,0.4,0.1,0.8,0.1,1.2c-1.2,0-2.3-0.1-3.5-0.1c0-0.2,0-0.5,0.1-0.7C-257.7,300.3-257.6,300-257.6,299.8
				z M-254.3,301.8c0,0.5,0,0.9-0.1,1.4c-1.1-0.2-2.2-0.2-3.3-0.2c-0.1-0.4-0.1-0.9-0.1-1.3C-256.6,301.8-255.5,301.8-254.3,301.8z
				 M-257.6,299.3c0-0.4,0-0.8,0-1.1c1,0.1,2,0.2,3,0.3c0,0.2,0.1,0.3,0.1,0.5c0,0.2,0.1,0.4,0.1,0.6
				C-255.5,299.6-256.5,299.4-257.6,299.3z M-257.7,297.7c-0.1-0.3-0.2-0.5-0.4-0.8c-0.2-0.3-0.4-0.5-0.7-0.7
				c1.2,0.2,2.5,0.3,3.7,0.4c0.2,0.5,0.3,0.9,0.4,1.4C-255.7,297.9-256.7,297.8-257.7,297.7z M-259.6,295.6
				c-0.2-0.1-0.3-0.2-0.4-0.4c-0.1-0.1-0.1-0.5,0-0.9c1.4,0.2,2.8,0.4,4.2,0.4c0.2,0.4,0.4,0.9,0.5,1.3
				C-256.7,296-258.2,295.8-259.6,295.6z M-260,293.4c-0.1-0.2-0.2-0.4-0.3-0.5c1.2,0.2,2.5,0.3,3.7,0.4c0.2,0.3,0.3,0.7,0.5,1
				c-1.3,0-2.6-0.2-3.9-0.4C-260,293.7-260,293.5-260,293.4z M-260.8,292.3c-0.4-0.3-0.8-0.6-1.3-0.9c0.1,0,0.2,0,0.2,0
				c0.6-0.1,1.1-0.1,1.7-0.1c0.8,0,1.5,0,2.3,0c0.3,0.5,0.7,1,1,1.5C-258.2,292.7-259.5,292.5-260.8,292.3z M-260.7,287.9
				c-1.9,0-3.8,0-5.6,0.1c0,0-0.1,0-0.1,0c-0.1-0.5-0.4-0.9-0.8-1.1c1.9,0,3.7,0.1,5.6,0C-261.4,287.3-261.1,287.6-260.7,287.9z
				 M-289.1,321.9c-2.4-1.6-4.1-3.5-5.6-5.9c-1.3-2.1-2.6-4.3-3.1-6.7c-1.1-4.7-0.8-9.5,0.7-14.1c1.5-4.5,4.5-8.7,8.5-11.3
				c1.5-1,3.1-1.7,4.8-2.2c0,0,0,0,0,0.1c0.1,0.7,1.2,1.8,0.2,2.4c-0.4,0.3-1.2,0.5-1.5,1c-0.4,0.9,0.2,1.9-0.8,2.6
				c-0.2,0.2-0.1,0.5,0.2,0.4c0.4-0.1,0.9,0,1.3,0c-0.3,1.5-2.3,2.2-2.7,3.7c0,0.2,0.1,0.3,0.2,0.3c1.3,0.1,2.8-1,3.9-1.7
				c0.6-0.4,1.1-0.7,1.6-1.2c0.8-0.6,0.5-1.7,1-2.4c0.7,0,2.1-1.2,2.6-1.4c0,0,0,0,0,0c0.7-0.3,1.6-0.4,2.4-0.5
				c1.3-0.2,1.8,1,2.7,1.6c1.4,1,5-0.5,5.5,1.6c-0.8,0.1-1,0.4-1.5,1.1c-0.1,0.1,0,0.3,0.1,0.3c1.6,0.7,1.6,2.5,2.7,3.7
				c0.9,0.9,2.2,0.9,3.4,1c0.2,0,0.3-0.2,0.2-0.3c-0.1-0.6-0.4-1-0.9-1.4c-0.4-0.4-0.6-0.7-0.6-1.2c0-0.5,0.2,0,0.3,0c0,0,0,0,0,0
				c-0.2,0.1-0.2,0.2-0.2,0.4c0.1,0.2,0.4,0.1,0.4-0.1c0.3,0.3,0.7,0.5,1.1,0.8c-0.2,0.1-0.1,0.4,0.1,0.5c0.2,0,0.4,0,0.6,0.1
				c0.3,0.3,0.6,0.6,0.7,1.1c-0.4,0-0.7-0.1-1.1-0.1c-0.3,0-0.3,0.4,0,0.5c0.4,0,0.7,0.1,1.1,0.1c0,0.2-0.1,0.5-0.2,0.7
				c0,0.1,0,0.2,0,0.3c0.1,0.1,0.2,0.2,0.3,0.2c-0.1,0.1-0.1,0.4,0.1,0.4c0.2,0,0.3,0,0.5,0.1c0.5,0.4,0.9,0.7,1.3,1.2
				c0.1,0.1,0.2,0.2,0.3,0.4c-0.5-0.1-1-0.1-1.5-0.2c-0.3,0-0.3,0.4,0,0.5c0.5,0.1,1.1,0.1,1.7,0.2c0.1,0.4,0.1,0.8,0,1.2
				c-0.4,0-0.9,0-1.3,0c-0.3,0-0.3,0.5,0,0.5c0.4,0,0.8,0,1.3,0c0,0,0,0,0,0c-0.1,0.5-0.1,1-0.1,1.5c-0.4,0-0.8,0-1.1,0
				c-0.3,0-0.3,0.5,0,0.5c0.4,0,0.7,0,1.1,0c0,0.4,0,0.9,0,1.3c-0.3,0-0.5,0-0.8,0c-0.3,0-0.3,0.5,0,0.5c0.3,0,0.6,0,0.9,0
				c0,0.1,0,0.1,0,0.2c0,0.2,0.1,0.5,0.1,0.7c-0.4,0-0.8,0-1.1,0c-0.3,0-0.3,0.5,0,0.5c0.4,0,0.8,0,1.3,0c0.1,0.4,0.2,0.8,0.3,1.2
				c-0.5,0-1,0-1.6,0c-0.3,0-0.3,0.5,0,0.5c0.6,0,1.1,0,1.7,0c0.1,0.3,0.1,0.7,0.2,1c-1-0.1-2.1-0.1-3.1-0.1c-0.3,0-0.3,0.5,0,0.5
				c1.1,0,2.1,0.1,3.2,0.1c0,0.1,0,0.3,0,0.4c0,0.2,0.2,0.3,0.4,0.2c0.2-0.2,0.5-0.4,0.7-0.5c0.3,0,0.6,0,0.9,0
				c-0.1,0.4-0.2,0.8-0.3,1.2c-1.9,0-3.9,0-5.8-0.1c-0.3,0-0.3,0.5,0,0.5c1.9,0.1,3.8,0.1,5.6,0.1c-0.1,0.4-0.3,0.9-0.5,1.3
				c-1.9-0.1-3.8-0.3-5.7-0.3c-0.3,0-0.3,0.5,0,0.5c1.9,0,3.7,0.2,5.5,0.3c-0.2,0.3-0.3,0.7-0.5,1c-2,0-3.9,0-5.9,0
				c-0.3,0-0.3,0.5,0,0.5c1.9,0,3.8,0,5.6,0c-0.2,0.4-0.5,0.8-0.7,1.2c-2-0.1-3.9-0.2-5.9-0.3c-0.3,0-0.3,0.5,0,0.5
				c1.9,0.1,3.7,0.3,5.6,0.3c-0.1,0.1-0.2,0.3-0.3,0.4c-0.1,0.2-0.3,0.4-0.4,0.6c-1.9-0.3-3.8-0.5-5.8-0.3c0-0.1-0.2-0.2-0.4-0.1
				c-1.6,0.8-3.4,0.7-5.1,0.7c-1.4,0.1-2.4,0.5-3.6,1.1c-1.6,0.9-3.7-0.3-5.3-0.8c-0.3-0.1-0.9-0.7-0.4-0.9c0.4-0.2,1-0.2,1.4-0.2
				c0.6-0.1,1.5-0.1,2-0.5c0.7-0.6,0.5-2,0.8-2.8c0.5-1.6,2.9-1.9,3.9-2.9c0.1-0.1,0.1-0.2,0-0.3c-1-1.2,0.3-0.6,0.9-1
				c0.4-0.2,1-0.7,1.3-1.1c0.1-0.2,0-0.4-0.2-0.4c-1,0-1.7-1.2-2.6-1.7c-1.3-0.7-3.2-0.4-4.1-1.8c-0.1-0.1-0.2-0.2-0.3-0.1
				c-1.3,0.7-1.3,2.9-2.5,3.7c-0.3,0.2-0.5-1.6-0.5-1.6c-0.1-1.1,0.5-1.9,1-2.9c0.5-1,0.2-2.1-0.5-2.8c-0.7-0.8-2.1-1.2-3-1.7
				c-0.6-0.4-1.1-0.8-1.5-1.4c-0.5-0.7,0.1-0.9,0.3-1.5c0.3-0.7-1-0.9-1.4-0.7c-0.7,0.3-1.5,0.4-2.2,0.7c-0.9,0.3-1.5-0.7-2.2-0.9
				c-0.2,0-0.3,0.1-0.3,0.2c0,0.1,0,0.1,0,0c-0.1,0.1-0.1,0.2,0,0.3c-0.2,0.4-0.4,0.5-0.3,0.9c-0.7-0.1-2-0.1-1.5,0.8
				c0.8,1.6,3.4,1.4,3.9,3.2c0.2,0.8-0.2,1.9-0.2,2.7c0,0.5,0.1,1,0.2,1.4c0.3,0.9,0.4,1.7,0.2,2.7c-0.4,2.1-0.3,4.7,1.1,6.3
				c0.1,0.1,0.4,0.1,0.4-0.1c0.1-0.6,0.2-1.1,0.2-1.7c0.7,1.2,0.4,2.8,0.1,4.1c0,0.1,0,0.3,0.2,0.3c1.4,0.5,1.7,1.8,2.8,2.7
				c0.9,0.7,2,1.2,3,1.6c1,0.4,2,0.6,3.1,0.8c1.2,0.2-0.4,1-0.9,1.5c-0.1,0-0.2,0.1-0.2,0.2c0,0,0,0,0,0c0,0.2,0.2,0.2,0.3,0.2
				c0.4,0.2,0.7,0.4,0.8,0.8c-0.1,0-0.2,0-0.3,0c-0.3,0-0.3,0.5,0,0.5c0.1,0,0.2,0,0.3,0c0,0.2,0,0.3,0,0.5
				c-1.1-0.2-2.2-0.3-3.2-0.4c-0.3,0-0.3,0.5,0,0.5c1.1,0.1,2.2,0.2,3.2,0.4c0,0.3,0,0.5,0,0.7c-2.6-0.2-5.2-0.5-7.7-0.8
				c-0.3,0-0.3,0.5,0,0.5c2.6,0.3,5.2,0.6,7.9,0.8c0,0.1,0.1,0.1,0.1,0.2C-280.3,325.5-285.1,324.5-289.1,321.9z M-273.4,334.3
				c-1.3,0.4-2.7,0.6-4.1,0.7c-1.6,0.1-3.1-0.3-4.7-0.2c-0.2,0-0.2,0.4,0,0.4c1.6,0,3.1,0.3,4.7,0.2c1.5-0.1,2.9-0.3,4.3-0.7
				c0,0,0.1,0.1,0.1,0.1c0.1,0.1,0.2,0.2,0.2,0.3c-3.6,1.5-7.5,1.2-11.3,0.6c-0.2,0-0.3,0.3-0.1,0.4c3.9,0.6,7.9,0.8,11.6-0.7
				c0.1,0.2,0.2,0.5,0.4,0.8c-2.4,0.8-4.8,1.1-7.3,1.1c-1.4,0-2.8,0-4.1-0.3c-1-0.2-2-0.5-3.1-0.5c-0.2,0-0.2,0.4,0,0.4
				c1.2,0,2.2,0.5,3.4,0.6c1.4,0.2,2.8,0.2,4.2,0.2c2.4,0,4.8-0.3,7-1.1c0.1,0.4,0.3,0.8,0.4,1.2c-1.4,0.3-2.8,0.7-4.3,1
				c-1.8,0.3-3.7,0.3-5.5,0.2c-2.8-0.2-5.7-0.9-8.4-1.5c1.1-3,4.7-4.6,7.9-5.3c2,0.3,4,0.5,6,0.6c0.5,0.2,1,0.4,1.4,0.6
				c-0.7,0.2-1.4,0.4-2.1,0.5c-1.1,0.1-2.3-0.1-3.4-0.2c-0.2,0-0.2,0.4,0,0.4c1.1,0,2.3,0.2,3.4,0.2c0.9,0,1.7-0.3,2.5-0.6
				C-274,333.8-273.7,334-273.4,334.3z M-249.5,305.6c-0.8,5.9-2.7,12-7,16.3c-3.1,3-7,5.1-11,6.5c-3.4,1.2-6.9,1.5-10.4,1.3
				c0,0,0,0,0-0.1c0,0,0,0,0-0.1c0.1-0.4,0.1-0.7,0.2-1.1c0.1-0.4,0.1-0.8,0.2-1.1c1.6,0,3.3-0.2,4.8-0.5c5.6-1.1,11.1-4.8,14.9-9
				c3.7-4.2,5.2-9.5,5.5-15c0.5-8.4-4.8-15.8-11.7-20c-3.3-1.9-6.9-3.2-10.7-3.7c0.3-0.8,0.5-1.7,0.6-2.6c0.7,0.1,1.5,0.3,2.2,0.4
				c2.3,0.5,4.7,1.2,6.9,2c5.1,1.9,9.6,6.3,12.5,10.9C-249.4,294.5-248.7,300.1-249.5,305.6z"/>
		</g>
	</g>
	<g id="Layer_2_1_">
	</g>
	<ellipse fill="#A8CCA3" cx="-293.2" cy="321" rx="17.9" ry="17.1"/>
	
		<ellipse transform="matrix(0.7692 0.639 -0.639 0.7692 123.9511 255.0453)" fill="#A8CCA3" cx="-291.1" cy="299.1" rx="1.9" ry="5.3"/>
	
		<ellipse transform="matrix(0.7692 0.639 -0.639 0.7692 129.3064 266.5278)" fill="#A8CCA3" cx="-304.3" cy="312.3" rx="2.4" ry="5.3"/>
</g>
<g id="Layer_1">
	<g>
		<path fill="#2F353A" d="M-295.6,305.4c0.2,0,0.4,0,0.5,0c2.5,0,5.2-1.4,7-3.6c1.9-2.3,2.9-5.3,2.6-8c-0.1-0.5-0.5-0.8-0.9-0.8
			c-2.5,0.1-5.6,1.7-7.4,3.8c-1.5,1.8-3,4.8-2.6,7.8C-296.4,305-296.1,305.3-295.6,305.4z M-292.4,297.9c1.3-1.5,3.3-2.7,5.2-3.1
			c0,2-0.8,4.1-2.2,5.8c-1.4,1.7-3.4,2.8-5.3,2.9C-294.7,301.4-293.5,299.2-292.4,297.9z"/>
		<path fill="#2F353A" d="M-274.5,315.2l-2.8-6.2c-2.9-4.2-7.3-4.9-9-4.9c-2.4-0.2-4.7,0.7-6.5,1.4c-1,0.4-1.9,0.7-2.4,0.7
			c-0.6,0-1.5-0.4-2.5-0.8c-1.5-0.6-3.1-1.2-4.9-1.2l-0.1,0c-4.2,0.1-8.1,2.4-10.2,6.2c-4,7-1.5,17.7,2.9,24.1
			c1.8,2.6,4.3,6.2,7.8,6.2c0,0,0,0,0,0l0.2,0c1.5-0.1,2.6-0.5,3.6-1c1.1-0.5,2.2-0.9,3.9-0.9c1.6,0,2.6,0.4,3.7,0.9
			c1.1,0.5,2.2,0.9,3.8,0.9l0.2,0c3.7-0.1,5.9-3.4,7.7-6c2-2.9,2.9-5.7,3.3-6.8 M-278,328.1c-0.4,1.2-1.3,3.4-2.8,5.6
			c-2,2.9-3.7,5.2-6.3,5.3l-0.1,0c-1.2,0-2.1-0.4-3-0.8c-1.1-0.5-2.4-1-4.4-1c-2.1,0-3.4,0.6-4.6,1.1c-1,0.4-1.8,0.8-3,0.8l-0.1,0
			c-2.4,0-4.4-2.6-6.3-5.4c-5.5-8-5.6-17.4-2.9-22.2c1.8-3.2,5.2-5.3,8.7-5.3l0.1,0c1.5,0,3,0.6,4.3,1.1c1.2,0.5,2.2,0.9,3.2,0.9
			c0.9,0,1.9-0.4,3.1-0.9c1.5-0.6,3.2-1.3,5-1.3c0.2,0,0.4,0,0.7,0c1.4,0.1,4.7,0.5,7.1,3.4l2.8,8.2L-278,328.1z"/>
	</g>
	<path fill="#2F353A" d="M-293.7,331.6c3,2.5,5.6,5.4,8.3,8.3c0.3,0.3,0.7-0.1,0.4-0.4c-2.6-2.9-5.3-5.7-8.3-8.3
		C-293.6,330.9-294,331.4-293.7,331.6L-293.7,331.6z"/>
	<path fill="#2F353A" d="M-291.8,331c3,2.5,5.6,5.4,8.3,8.3c0.3,0.3,0.7-0.1,0.4-0.4c-2.6-2.9-5.3-5.7-8.3-8.3
		C-291.7,330.3-292.1,330.8-291.8,331L-291.8,331z"/>
	<path fill="#2F353A" d="M-290.6,330c2.7,2.3,5,4.9,7.4,7.6c0.2,0.3,0.6-0.1,0.4-0.4c-2.4-2.6-4.7-5.2-7.4-7.6
		C-290.5,329.4-290.9,329.8-290.6,330L-290.6,330z"/>
	<path fill="#2F353A" d="M-289.5,328.6c3,2.5,5.6,5.4,8.3,8.3c0.3,0.3,0.7-0.1,0.4-0.4c-2.6-2.9-5.3-5.7-8.3-8.3
		C-289.4,327.9-289.9,328.3-289.5,328.6L-289.5,328.6z"/>
	<path fill="#2F353A" d="M-288.8,327.6c3,2.5,5.6,5.4,8.3,8.3c0.3,0.3,0.7-0.1,0.4-0.4c-2.6-2.9-5.3-5.7-8.3-8.3
		C-288.7,326.8-289.2,327.3-288.8,327.6L-288.8,327.6z"/>
	<path fill="#2F353A" d="M-287.9,326.1c3,2.5,5.6,5.4,8.3,8.3c0.3,0.3,0.7-0.1,0.4-0.4c-3.9-4.2-6.6-6.9-8.3-8.3
		C-287.8,325.4-288.2,325.8-287.9,326.1L-287.9,326.1z"/>
	<path fill="#2F353A" d="M-287.4,324.3c3,2.5,5.6,5.4,8.3,8.3c0.3,0.3,0.7-0.1,0.4-0.4c-2.6-2.9-5.3-5.7-8.3-8.3
		C-287.3,323.6-287.7,324.1-287.4,324.3L-287.4,324.3z"/>
	<path fill="#2F353A" d="M-286.2,323.4c3,2.5,5.6,5.4,8.3,8.3c0.3,0.3,0.7-0.1,0.4-0.4c-2.6-2.9-5.3-5.7-8.3-8.3
		C-286,322.7-286.5,323.1-286.2,323.4L-286.2,323.4z"/>
	<path fill="#2F353A" d="M-285.2,321.9c2.7,2.3,5.1,5,7.6,7.6c0.3,0.3,0.7-0.1,0.4-0.4c-2.4-2.6-4.8-5.3-7.6-7.6
		C-285,321.2-285.4,321.6-285.2,321.9L-285.2,321.9z"/>
	<path fill="#2F353A" d="M-284.5,320.8c2.7,2.2,5.1,4.7,7.5,7.1c0.2,0.3,0.6-0.1,0.4-0.4c-2.4-2.5-4.8-4.9-7.5-7.1
		C-284.3,320.2-284.7,320.6-284.5,320.8L-284.5,320.8z"/>
	<path fill="#2F353A" d="M-283.4,319.9c2.4,2,4.5,4.3,6.6,6.6c0.2,0.2,0.6-0.1,0.4-0.4c-3.1-3.4-5.3-5.5-6.6-6.6
		C-283.3,319.4-283.6,319.7-283.4,319.9L-283.4,319.9z"/>
</g>
<g id="Capa_2">
	<g id="Layer_1_1_">
		<g>
			<g>
				<path fill="#2F353A" d="M-308.7,291.3c0.9-0.5,0.1-2-0.8-1.4c-1.2,0.7-2.2,1.6-3.3,2.3c-1.2,0.8-2.4,1.5-3.5,2.4
					c-2,1.5-4,3.1-5.8,4.9c-1.7,1.7-2.4,4.1-3.5,6.1c-1.2,2.1-2.6,4.2-3.9,6.2c-1.4,2.2-2.7,4.4-4,6.6c-0.7,1.1-1.4,2.3-2.2,3.3
					c-0.7,0.9-1.5,1.8-2.1,2.7c-1.2,1.6-2.2,3.6-1.3,5.6c0.8,1.8,2.5,2.8,4,3.9c1.4,1.1,2.8,2.4,4.7,2.7c4.5,0.8,6.4-5.2,8.3-8.2
					c1.3-2.1,2.8-4.1,4.1-6.2c1.4-2.2,2.7-4.4,4.2-6.6c1.4-2.1,2.9-4.1,4.3-6.3c0.5-0.8,1-1.7,1.4-2.5c0.3-0.6,0.1-1.6,0.2-2.3
					c0.3-4.5-0.3-9.1-0.2-13.6c0-1.1-1.6-1.1-1.6-0.1c-0.1,4.5,0.5,9.1,0.2,13.6c0,0.5-0.1,1-0.1,1.4c0,0.5-0.1,0.3,0.2-0.1
					c-0.2,0.1-0.3,0.4-0.4,0.6c-0.5,1-1,1.9-1.6,2.8c-1.3,2.1-2.8,4-4.1,6.1c-1.4,2.2-2.8,4.4-4.2,6.6c-1.3,2-2.7,3.9-3.9,5.9
					c-1.1,1.9-1.9,4.1-3.4,5.7c-0.6,0.7-1.4,1.5-2.4,1.5c-0.9,0-1.7-0.3-2.5-0.8c-0.8-0.5-1.5-1.1-2.3-1.7c-0.7-0.6-1.5-1.1-2.2-1.7
					c-0.7-0.6-1.5-1.5-1.4-2.5c0.1-1.1,0.7-2,1.3-2.9c0.7-1,1.6-1.9,2.3-2.9c0.7-1,1.4-2,2-3.1c1.4-2.2,2.7-4.4,4-6.6
					c1.3-2.1,2.7-4.1,3.9-6.2c0.6-1.1,1.2-2.2,1.7-3.3c0.5-1.1,1-2.1,1.9-2.9c1.9-1.7,3.8-3.5,5.9-4.9c1.1-0.8,2.2-1.5,3.3-2.3
					C-310.6,292.6-309.7,291.9-308.7,291.3L-308.7,291.3z"/>
			</g>
		</g>
		<g>
			<g>
				<path fill="#2F353A" d="M-321.1,299.2c-0.1-0.2-0.5,0-0.4,0.2c0.4,0.9,0.6,2.2,1.3,3c1,1.1,2.3,2.2,3.6,2.9
					c1.1,0.6,2.3,1,3.6,1.2c0.6,0.1,1.3,0.2,1.9,0.3c0.7,0.1,1.4-0.1,2.1-0.2c0.3,0,0.2-0.4-0.1-0.4c-0.8,0.1-1.6,0.2-2.5,0.1
					c-0.6-0.1-1.2-0.2-1.8-0.3c-1.3-0.2-2.5-0.6-3.5-1.3c-0.7-0.4-1.3-0.9-1.9-1.4c-0.5-0.4-1-0.8-1.3-1.3
					C-320.5,301.1-320.8,300.2-321.1,299.2L-321.1,299.2z"/>
			</g>
		</g>
		<g>
			<g>
				<path fill="#2F353A" d="M-336.1,323.9c-0.1-0.2-0.5,0-0.4,0.2c1.9,4.4,6.8,6.8,11.1,8.3c0.3,0.1,0.4-0.3,0.1-0.4
					C-329.5,330.6-334.2,328.2-336.1,323.9L-336.1,323.9z"/>
			</g>
		</g>
		<g>
			<g>
				<path fill="#2F353A" d="M-334.6,322c-0.1-0.3-0.5-0.2-0.4,0.1S-334.6,322.2-334.6,322L-334.6,322z"/>
			</g>
		</g>
		<g>
			<g>
				<path fill="#2F353A" d="M-334.6,322c0-0.3-0.4-0.3-0.4,0c0,0.7,0.9,1.5,1.3,1.9c0.7,0.8,1.6,1.5,2.4,2.2c2.2,2,4.9,3.7,7.9,4
					c0.3,0,0.3-0.4,0-0.4c-2.9-0.3-5.5-1.9-7.6-3.8c-0.7-0.6-1.4-1.2-2.1-1.9C-333.6,323.5-334.7,322.6-334.6,322L-334.6,322z"/>
			</g>
		</g>
		<g>
			<g>
				<path fill="#2F353A" d="M-319.5,303c0.1-0.2-0.3-0.4-0.4-0.1c-0.9,2.1-2.3,3.9-3.3,5.9c-1,1.9-2,3.8-3.1,5.7
					c-1.1,1.9-2.2,3.8-3.4,5.6c-1,1.5-2.2,2.9-3.2,4.4c-0.2,0.2,0.2,0.4,0.3,0.2c1.1-1.7,2.5-3.2,3.6-4.9c1.2-1.8,2.3-3.7,3.4-5.6
					c1.1-1.9,2.1-3.8,3.1-5.7C-321.6,306.6-320.3,304.9-319.5,303L-319.5,303z"/>
			</g>
		</g>
		<g>
			<g>
				<path fill="#2F353A" d="M-315.9,305.5c0.1-0.2-0.3-0.4-0.4-0.1c-0.4,0.9-1.1,1.7-1.7,2.5c-0.6,1-1.2,2-1.8,3
					c-1.1,2.1-2.3,4.2-3.6,6.1c-1.3,1.9-2.7,3.7-3.9,5.7c-0.3,0.5-0.6,1-0.9,1.5c-0.3,0.5-0.5,1.1-0.8,1.6c-0.3,0.4-0.6,0.8-0.9,1.3
					c-0.1,0.2,0.2,0.4,0.3,0.2c0.3-0.5,0.7-1,1-1.5c0.5-1,1.1-2.1,1.7-3.1c1.2-1.9,2.6-3.8,3.9-5.7c1.4-2.1,2.5-4.2,3.7-6.4
					c0.6-1,1.2-2.1,1.8-3C-316.8,307-316.2,306.3-315.9,305.5L-315.9,305.5z"/>
			</g>
		</g>
		<g>
			<g>
				<path fill="#2F353A" d="M-312.5,306.5c0.1-0.2-0.2-0.5-0.3-0.2c-1.9,3.9-4.5,7.5-6.7,11.2c-2.3,3.8-4.6,7.5-7.1,11.1
					c-0.2,0.2,0.2,0.4,0.3,0.2c2.6-3.7,5-7.5,7.3-11.4C-316.8,313.8-314.3,310.3-312.5,306.5L-312.5,306.5z"/>
			</g>
		</g>
		<g>
			<g>
				<path fill="#2F353A" d="M-333.9,323.5c0.1-0.2-0.3-0.4-0.4-0.1c-0.3,0.7-0.9,1.3-1.4,1.9c-0.2,0.2,0.2,0.4,0.3,0.2
					C-334.9,324.8-334.3,324.3-333.9,323.5L-333.9,323.5z"/>
			</g>
		</g>
		<g>
			<g>
				<path fill="#2F353A" d="M-333.2,324.2c0.2-0.2-0.1-0.5-0.3-0.3c-0.6,0.7-1,1.4-1.5,2.1c-0.2,0.2,0.2,0.4,0.3,0.2
					C-334.2,325.6-333.8,324.9-333.2,324.2L-333.2,324.2z"/>
			</g>
		</g>
		<g>
			<g>
				<path fill="#2F353A" d="M-332.6,325.1c0.2-0.2-0.1-0.5-0.3-0.3c-0.6,0.7-1.1,1.4-1.5,2.2c-0.1,0.2,0.2,0.5,0.3,0.2
					C-333.6,326.4-333.1,325.7-332.6,325.1L-332.6,325.1z"/>
			</g>
		</g>
		<g>
			<g>
				<path fill="#2F353A" d="M-331.7,325.5c0.2-0.2-0.2-0.4-0.3-0.2c-0.5,0.8-0.8,1.7-1.4,2.5c-0.2,0.2,0.1,0.5,0.3,0.3
					C-332.6,327.3-332.3,326.3-331.7,325.5L-331.7,325.5z"/>
			</g>
		</g>
		<g>
			<g>
				<path fill="#2F353A" d="M-330.9,326.3c0.2-0.2-0.1-0.5-0.3-0.3c-0.6,0.7-1,1.5-1.5,2.3c-0.1,0.2,0.2,0.4,0.3,0.2
					C-331.9,327.8-331.5,327-330.9,326.3L-330.9,326.3z"/>
			</g>
		</g>
		<g>
			<g>
				<path fill="#2F353A" d="M-330.1,326.9c0.1-0.3-0.3-0.4-0.4-0.1c-0.3,0.8-0.9,1.4-1.5,2c-0.2,0.2,0.1,0.5,0.3,0.3
					C-331.1,328.5-330.4,327.8-330.1,326.9L-330.1,326.9z"/>
			</g>
		</g>
		<g>
			<g>
				<path fill="#2F353A" d="M-329.2,327.6c0.2-0.2-0.2-0.4-0.3-0.2c-0.5,0.7-1,1.5-1.5,2.2c-0.2,0.2,0.2,0.4,0.3,0.2
					C-330.2,329.1-329.7,328.3-329.2,327.6L-329.2,327.6z"/>
			</g>
		</g>
		<g>
			<g>
				<path fill="#2F353A" d="M-328.5,328.2c0.2-0.2-0.1-0.5-0.3-0.3c-0.6,0.6-1.1,1.3-1.5,2c-0.1,0.2,0.2,0.5,0.3,0.2
					C-329.5,329.4-329,328.8-328.5,328.2L-328.5,328.2z"/>
			</g>
		</g>
		<g>
			<g>
				<path fill="#2F353A" d="M-327.8,328.4c0.1-0.2-0.3-0.4-0.4-0.1c-0.3,0.7-0.6,1.5-1.2,2c-0.2,0.2,0.1,0.5,0.3,0.3
					C-328.5,330-328.1,329.2-327.8,328.4L-327.8,328.4z"/>
			</g>
		</g>
		<g>
			<g>
				<path fill="#2F353A" d="M-327,329c0.1-0.2-0.2-0.4-0.3-0.2c-0.4,0.7-0.9,1.4-1.4,2c-0.2,0.2,0.2,0.4,0.3,0.2
					C-327.9,330.4-327.4,329.7-327,329L-327,329z"/>
			</g>
		</g>
		<g>
			<g>
				<path fill="#2F353A" d="M-326.2,329.3c0.1-0.2-0.2-0.4-0.3-0.2c-0.4,0.7-1.1,1.4-1.3,2.2c0,0.3,0.3,0.4,0.4,0.1
					C-327.3,330.6-326.6,329.9-326.2,329.3L-326.2,329.3z"/>
			</g>
		</g>
		<g>
			<g>
				<path fill="#2F353A" d="M-325.2,329.6c0.2-0.2-0.1-0.5-0.3-0.3c-0.6,0.7-0.9,1.5-1.6,2.1c-0.2,0.2,0.1,0.5,0.3,0.3
					C-326.1,331.1-325.8,330.3-325.2,329.6L-325.2,329.6z"/>
			</g>
		</g>
		<g>
			<g>
				<path fill="#2F353A" d="M-313.3,293.7c0-0.3-0.4-0.3-0.4,0c0.1,0.7,0.7,1.5,1.2,1.9c0.8,0.7,1.9,0.6,2.8,0.5
					c0.3,0,0.3-0.4,0-0.4c-0.8,0.1-1.7,0.2-2.5-0.3C-312.5,295-313.2,294.2-313.3,293.7L-313.3,293.7z"/>
			</g>
		</g>
		<g>
			<g>
				<path fill="#2F353A" d="M-311.6,291.9c-0.3,0-0.3,0.4,0,0.4c0.7-0.1,1.5-0.1,2.2-0.2c0.2,0,0.3-0.3,0.1-0.4
					c-0.3-0.1-0.5-0.2-0.8-0.2c0,0.1,0,0.3,0,0.4c0.3-0.1,0.6-0.1,0.8-0.2c0.2-0.1,0.2-0.3,0.1-0.4c-0.2-0.1-0.4-0.3-0.6-0.4
					c0,0.1-0.1,0.3-0.1,0.4c0.2,0,0.4,0.1,0.6,0.1c0-0.1-0.1-0.2-0.1-0.3c-0.4,0.3-0.9,0.4-1.4,0.4c-0.2,0-0.3,0.3-0.1,0.4
					c0.5,0.2,1,0.2,1.5,0.3c0-0.1,0-0.3,0-0.4c-0.7,0.2-1.3,0-2,0c-0.2,0-0.3,0.3-0.1,0.4c0.7,0.4,1.5,0.5,2.3,0.6
					c0-0.1,0-0.3,0-0.4c-0.8,0.3-1.6-0.1-2.4-0.1c-0.2,0-0.3,0.3-0.1,0.4c0.7,0.5,1.6,0.5,2.5,0.6c0-0.1,0-0.3,0-0.4
					c-0.9,0.2-1.8-0.2-2.7-0.3c-0.2,0-0.3,0.3-0.1,0.4c0.8,0.5,1.6,0.6,2.5,0.7c0-0.1,0-0.3,0-0.4c-0.8,0.1-1.6-0.3-2.4-0.4
					c-0.2,0-0.3,0.3-0.1,0.4c0.8,0.6,1.7,0.6,2.7,0.8c0-0.1,0-0.3,0.1-0.4c-1,0.1-1.8-0.4-2.8-0.5c-0.2,0-0.3,0.3-0.1,0.4
					c1,0.7,2.2,0.6,3.3,0.9c0-0.1,0-0.3,0.1-0.4c-1.1-0.2-2.1-0.7-3.3-0.8c-0.2,0-0.3,0.3-0.1,0.4c0.9,0.7,2.1,0.8,3.2,1.3
					c0-0.1,0-0.3,0.1-0.4c-1.1-0.1-2.1-0.7-3.2-0.9c-0.2,0-0.4,0.2-0.2,0.4c0.9,0.7,1.9,1.1,3,1.4c0.2,0.1,0.4-0.2,0.2-0.4
					c-1-0.7-2.2-1.3-3.5-1.4c-0.2,0-0.3,0.3-0.1,0.4c1.1,0.6,2.2,1.1,3.4,1.5c0.2,0.1,0.4-0.3,0.2-0.4c-1-0.6-2.1-1-3.2-1.3
					c-0.2-0.1-0.3,0.1-0.2,0.3c0.4,0.8,1.2,1.2,1.9,1.4c0.6,0.2,1.7,0.5,2.4,0.4c0.8-0.2-0.6-2.7-0.7-3c-0.1-0.2-0.5-0.2-0.4,0.1
					c0.1,0.4,0.3,0.8,0.5,1.2c0.1,0.2,0.5,1.4,0.5,1.4c-1.3-0.1-3.2-0.4-3.8-1.6c-0.1,0.1-0.2,0.2-0.2,0.3c1.1,0.3,2.1,0.7,3.1,1.3
					c0.1-0.1,0.1-0.2,0.2-0.4c-1.1-0.5-2.2-1-3.3-1.5c0,0.1-0.1,0.3-0.1,0.4c1.2,0.1,2.4,0.6,3.3,1.3c0.1-0.1,0.1-0.2,0.2-0.4
					c-1-0.3-2-0.7-2.9-1.3c-0.1,0.1-0.1,0.2-0.2,0.4c1.1,0.2,2.1,0.8,3.3,0.9c0.2,0,0.3-0.3,0.1-0.4c-1-0.4-2.2-0.5-3.1-1.2
					c0,0.1-0.1,0.3-0.1,0.4c1.1,0.1,2.2,0.6,3.3,0.8c0.2,0,0.3-0.3,0.1-0.4c-1.1-0.3-2.2-0.3-3.2-0.9c0,0.1-0.1,0.3-0.1,0.4
					c1,0.1,1.8,0.6,2.8,0.5c0.2,0,0.3-0.4,0.1-0.4c-0.9-0.2-1.8-0.2-2.6-0.7c0,0.1-0.1,0.3-0.1,0.4c0.8,0.1,1.6,0.4,2.4,0.4
					c0.3,0,0.3-0.4,0-0.4c-0.8-0.1-1.6-0.2-2.3-0.6c0,0.1-0.1,0.3-0.1,0.4c1,0.1,1.8,0.5,2.8,0.3c0.2-0.1,0.2-0.4,0-0.4
					c-0.8-0.1-1.6-0.1-2.3-0.5c0,0.1-0.1,0.3-0.1,0.4c0.9,0,1.7,0.4,2.5,0.1c0.2-0.1,0.2-0.4,0-0.4c-0.8,0-1.5-0.1-2.1-0.5
					c0,0.1-0.1,0.3-0.1,0.4c0.7,0.1,1.4,0.2,2.1,0c0.2-0.1,0.2-0.4,0-0.4c-0.5-0.1-0.9-0.1-1.4-0.3c0,0.1,0,0.3-0.1,0.4
					c0.6,0,1.2-0.1,1.7-0.5c0.1-0.1,0-0.3-0.1-0.3c-0.2-0.1-0.4-0.1-0.7-0.2c-0.2,0-0.3,0.3-0.1,0.4c0.2,0.1,0.4,0.2,0.6,0.4
					c0-0.1,0-0.2,0.1-0.4c-0.3,0.1-0.6,0.2-0.8,0.2c-0.2,0-0.2,0.3,0,0.4c0.3,0.1,0.5,0.2,0.8,0.2c0-0.1,0-0.3,0.1-0.4
					C-310.1,291.8-310.9,291.9-311.6,291.9L-311.6,291.9z"/>
			</g>
		</g>
		<g>
			<g>
				<path fill="#2F353A" d="M-312.5,294.3c-0.2-0.2-0.5,0.1-0.3,0.3c0.4,0.4,0.9,0.8,1.6,0.9c0.1,0,0.3-0.2,0.2-0.3
					c-0.1-0.2-0.3-0.3-0.5-0.4c-0.2-0.1-0.4,0.3-0.1,0.4c0.1,0,0.2,0.1,0.3,0.2c0.1-0.1,0.1-0.2,0.2-0.3
					C-311.7,295-312.1,294.6-312.5,294.3L-312.5,294.3z"/>
			</g>
		</g>
		<g>
			<g>
				<path fill="#2F353A" d="M-311.6,294.2c-0.3-0.1-0.4,0.3-0.1,0.4c0.3,0.1,0.6,0.2,0.8,0.2c0-0.1,0-0.3,0-0.4
					c-0.2,0-0.4,0-0.5-0.1c-0.1,0.1-0.1,0.2-0.2,0.4c0.1,0,0.2,0.1,0.3,0.1c0.3,0.1,0.4-0.3,0.1-0.4c-0.1,0-0.2-0.1-0.3-0.1
					c-0.2-0.1-0.4,0.3-0.2,0.4c0.3,0.1,0.5,0.2,0.8,0.1c0.2,0,0.2-0.4,0-0.4C-311.1,294.4-311.3,294.3-311.6,294.2L-311.6,294.2z"/>
			</g>
		</g>
		<path fill="#2F353A" d="M-309.8,295.8c0.8-0.3,0.4-1.3,0.1-1.9c-0.2-0.4-0.9-0.2-0.8,0.2c-0.1,0-0.2,0-0.4,0
			c-0.1,0-0.2,0.1-0.2,0.1c-0.2,0-0.3,0-0.5,0c-0.3-0.1-0.6-0.2-0.9-0.3c0,0,0,0,0,0c-0.1-0.1-0.2-0.1-0.3,0c-0.2,0-0.3,0.2-0.2,0.3
			c0,0.1,0,0.2,0,0.3c0.1,0.1,0.2,0.2,0.3,0.3c0,0,0,0,0,0c0,0-0.1,0.1-0.1,0.1c0,0.2,0.1,0.4,0.3,0.5c0.1,0,0.2,0,0.3,0
			c0,0,0,0,0.1,0.1C-311.6,296.1-310.5,296.1-309.8,295.8z"/>
		<g>
			<g>
				<path fill="#2F353A" d="M-312.1,296.3c-0.1-0.1-0.2,0-0.1,0.1c0.8,0.8,2.3,0.8,3.4,0.5c0.1,0,0.1-0.2,0-0.2
					C-309.9,297-311.3,297.1-312.1,296.3L-312.1,296.3z"/>
			</g>
		</g>
		<g>
			<g>
				<path fill="#2F353A" d="M-312.1,296.9c-0.1-0.1-0.2,0.1-0.1,0.2c1,0.6,2.1,0.8,3.2,0.7c0.1,0,0.1-0.2,0-0.2
					C-310,297.7-311.1,297.5-312.1,296.9L-312.1,296.9z"/>
			</g>
		</g>
		<g>
			<g>
				<path fill="#2F353A" d="M-312.1,297.6c-0.1-0.1-0.2,0.1-0.1,0.2c1,0.4,1.9,0.6,3,0.4c0.1,0,0.1-0.2,0-0.2
					C-310.2,298.2-311.2,298-312.1,297.6L-312.1,297.6z"/>
			</g>
		</g>
		<g>
			<g>
				<path fill="#2F353A" d="M-312.2,298.1c-0.1-0.1-0.2,0.1-0.1,0.2c0.9,0.6,1.9,0.5,2.9,0.6c0.1,0,0.1-0.2,0-0.2
					C-310.3,298.6-311.4,298.7-312.2,298.1L-312.2,298.1z"/>
			</g>
		</g>
		<g>
			<g>
				<path fill="#2F353A" d="M-312.4,298.7c-0.1-0.1-0.2,0.1-0.1,0.2c1,0.7,2.1,0.9,3.3,0.6c0.1,0,0.1-0.2,0-0.2
					C-310.4,299.6-311.4,299.4-312.4,298.7L-312.4,298.7z"/>
			</g>
		</g>
		<g>
			<g>
				<path fill="#2F353A" d="M-312.5,299.5c-0.1-0.1-0.2,0.1-0.1,0.2c1,0.5,2,0.6,3.2,0.6c0.1,0,0.1-0.2,0-0.2
					C-310.5,300.1-311.5,300-312.5,299.5L-312.5,299.5z"/>
			</g>
		</g>
		<g>
			<g>
				<path fill="#2F353A" d="M-312.7,300c-0.1-0.1-0.2,0.1-0.1,0.2c1,0.7,2.4,0.7,3.5,0.8c0.1,0,0.1-0.2,0-0.2
					C-310.4,300.7-311.7,300.7-312.7,300L-312.7,300z"/>
			</g>
		</g>
		<g>
			<g>
				<path fill="#2F353A" d="M-312.9,300.7c-0.1,0-0.1,0.2,0,0.2c0.3,0,0.6,0.3,0.9,0.4c0.3,0.1,0.6,0.2,0.9,0.3
					c0.7,0.2,1.3,0.3,2,0.4c0.1,0,0.2-0.2,0.1-0.2c-0.7-0.1-1.5-0.3-2.2-0.5C-311.9,301.2-312.4,300.8-312.9,300.7L-312.9,300.7z"/>
			</g>
		</g>
		<g>
			<g>
				<path fill="#2F353A" d="M-313.1,301.4c-0.1,0-0.2,0.2-0.1,0.2c0.6,0.2,1,0.6,1.6,0.7c0.9,0.1,1.7,0,2.6,0.2
					c0.1,0,0.2-0.2,0.1-0.2c-0.8-0.2-1.6-0.1-2.4-0.2c-0.5-0.1-0.9-0.2-1.3-0.5C-312.7,301.6-312.9,301.4-313.1,301.4L-313.1,301.4z
					"/>
			</g>
		</g>
		<g>
			<g>
				<path fill="#2F353A" d="M-313.3,302c-0.1,0-0.1,0.2,0,0.2c0.7,0.1,1.2,0.6,1.9,0.7c0.7,0.1,1.4,0.2,2.1,0.3
					c0.1,0,0.2-0.2,0.1-0.2c-0.8-0.1-1.6-0.1-2.3-0.3C-312.2,302.5-312.7,302.1-313.3,302L-313.3,302z"/>
			</g>
		</g>
		<g>
			<g>
				<path fill="#2F353A" d="M-313.3,302.6c-0.1-0.1-0.2,0.1-0.1,0.2c1.4,0.8,3,1.1,4.5,1.3c0.1,0,0.2-0.2,0.1-0.2
					C-310.3,303.7-311.9,303.4-313.3,302.6L-313.3,302.6z"/>
			</g>
		</g>
		<g>
			<g>
				<path fill="#2F353A" d="M-313.3,303.4c-0.1,0-0.2,0.2-0.1,0.2c0.6,0.1,1.1,0.5,1.7,0.7c0.9,0.3,1.8,0.4,2.7,0.6
					c0.1,0,0.2-0.2,0.1-0.2c-0.9-0.2-1.8-0.3-2.7-0.6C-312.2,304-312.7,303.6-313.3,303.4L-313.3,303.4z"/>
			</g>
		</g>
		<g>
			<g>
				<path fill="#2F353A" d="M-313.6,304.1c-0.1,0-0.2,0.2-0.1,0.2c1.6,0.5,3,1.2,4.7,1.4c0.1,0,0.1-0.2,0-0.2
					C-310.6,305.3-312.1,304.5-313.6,304.1L-313.6,304.1z"/>
			</g>
		</g>
		<g>
			<g>
				<path fill="#2F353A" d="M-314.2,305.2c-0.1,0-0.1,0.2,0,0.2c0.8,0.1,1.4,0.6,2.2,0.6c0.8,0.1,1.6,0.1,2.4,0.3
					c0.1,0,0.2-0.2,0.1-0.2c-0.8-0.2-1.7-0.2-2.5-0.3C-312.7,305.7-313.4,305.3-314.2,305.2L-314.2,305.2z"/>
			</g>
		</g>
		<g>
			<g>
				<path fill="#2F353A" d="M-314.6,305.8c-0.1,0-0.1,0.2,0,0.2c0.8,0,1.5,0.5,2.2,0.8c0.8,0.3,1.7,0.4,2.5,0.6
					c0.1,0,0.2-0.2,0.1-0.2c-1-0.3-1.9-0.3-2.8-0.8C-313.3,306.1-313.9,305.8-314.6,305.8L-314.6,305.8z"/>
			</g>
		</g>
		<g>
			<g>
				<path fill="#2F353A" d="M-314.5,306.3c-0.1-0.1-0.2,0.1-0.1,0.2c1.3,0.8,2.8,1.1,4.2,1.6c0.1,0,0.2-0.2,0.1-0.2
					C-311.8,307.4-313.3,307-314.5,306.3L-314.5,306.3z"/>
			</g>
		</g>
		<g>
			<g>
				<path fill="#2F353A" d="M-314.7,306.7c-0.1-0.1-0.2,0.1-0.1,0.2c1.1,0.9,2.5,1.4,3.8,1.9c0.1,0,0.2-0.1,0.1-0.2
					C-312.2,308.1-313.6,307.6-314.7,306.7L-314.7,306.7z"/>
			</g>
		</g>
		<g>
			<g>
				<path fill="#2F353A" d="M-315.2,307.2c-0.1-0.1-0.2,0.1-0.1,0.2c0.8,0.5,1.4,1.1,2.2,1.4c0.7,0.3,1.5,0.5,2.2,0.9
					c0.1,0.1,0.2-0.1,0.1-0.2c-0.8-0.4-1.6-0.6-2.4-1C-313.9,308.2-314.5,307.7-315.2,307.2L-315.2,307.2z"/>
			</g>
		</g>
		<g>
			<g>
				<path fill="#2F353A" d="M-315.4,307.9c-0.1-0.1-0.3,0.1-0.1,0.1c1.2,1,2.5,1.6,3.8,2.4c0.1,0.1,0.2-0.1,0.1-0.2
					C-312.9,309.5-314.3,308.8-315.4,307.9L-315.4,307.9z"/>
			</g>
		</g>
		<g>
			<g>
				<path fill="#2F353A" d="M-315.9,308.6c-0.1,0-0.2,0.1-0.1,0.2c1.4,0.6,2.7,1.4,4.1,2.2c0.1,0.1,0.2-0.1,0.1-0.2
					C-313.2,310-314.5,309.1-315.9,308.6L-315.9,308.6z"/>
			</g>
		</g>
		<g>
			<g>
				<path fill="#2F353A" d="M-316.2,309.3c-0.1-0.1-0.2,0.1-0.1,0.2c1.3,0.8,2.8,1.2,4,2.2c0.1,0.1,0.2-0.1,0.1-0.1
					C-313.4,310.5-314.9,310.1-316.2,309.3L-316.2,309.3z"/>
			</g>
		</g>
		<g>
			<g>
				<path fill="#2F353A" d="M-316.6,310c-0.1,0-0.2,0.2-0.1,0.2c1.4,0.4,2.7,1.4,3.7,2.3c0.1,0.1,0.2-0.1,0.1-0.1
					C-313.8,311.4-315.2,310.4-316.6,310L-316.6,310z"/>
			</g>
		</g>
		<g>
			<g>
				<path fill="#2F353A" d="M-317,310.5c-0.1-0.1-0.2,0.1-0.1,0.2c1.1,0.7,2.3,1.4,3.4,2.1c0.1,0.1,0.2-0.1,0.1-0.2
					C-314.7,311.9-315.8,311.2-317,310.5L-317,310.5z"/>
			</g>
		</g>
		<g>
			<g>
				<path fill="#2F353A" d="M-317.4,311.3c-0.1-0.1-0.2,0.1-0.1,0.2c1.2,0.7,2.4,1.5,3.6,2.3c0.1,0.1,0.2-0.1,0.1-0.2
					C-315,312.9-316.2,312.1-317.4,311.3L-317.4,311.3z"/>
			</g>
		</g>
		<g>
			<g>
				<path fill="#2F353A" d="M-317.8,312c-0.1-0.1-0.2,0.1-0.1,0.2c1,0.6,2,1.2,3,1.9c0.1,0.1,0.2-0.1,0.1-0.2
					C-315.8,313.3-316.8,312.7-317.8,312L-317.8,312z"/>
			</g>
		</g>
		<g>
			<g>
				<path fill="#2F353A" d="M-318.3,312.8c-0.1-0.1-0.2,0.1-0.1,0.2c1.2,0.6,2.5,1.4,3.5,2.3c0.1,0.1,0.2-0.1,0.1-0.1
					C-315.8,314.2-317.1,313.4-318.3,312.8L-318.3,312.8z"/>
			</g>
		</g>
		<g>
			<g>
				<path fill="#2F353A" d="M-318.7,313.4c-0.1-0.1-0.2,0-0.1,0.1c0.8,1,2.1,1.5,3.1,2.1c0.1,0.1,0.2-0.1,0.1-0.2
					C-316.6,314.8-317.9,314.3-318.7,313.4L-318.7,313.4z"/>
			</g>
		</g>
		<g>
			<g>
				<path fill="#2F353A" d="M-319.1,313.8c-0.1-0.1-0.3,0.1-0.1,0.1c1.1,0.9,2.4,1.5,3.5,2.5c0.1,0.1,0.2-0.1,0.1-0.1
					C-316.7,315.3-318,314.7-319.1,313.8L-319.1,313.8z"/>
			</g>
		</g>
		<g>
			<g>
				<path fill="#2F353A" d="M-319.6,314.4c-0.1-0.1-0.2,0.1-0.1,0.1c1.1,1,2.4,1.6,3.7,2.4c0.1,0.1,0.2-0.1,0.1-0.2
					C-317.2,316-318.5,315.4-319.6,314.4L-319.6,314.4z"/>
			</g>
		</g>
		<g>
			<g>
				<path fill="#2F353A" d="M-320,315.1c-0.1-0.1-0.3,0.1-0.1,0.1c1.2,1,2.5,1.7,3.7,2.4c0.1,0.1,0.2-0.1,0.1-0.2
					C-317.6,316.7-318.9,316-320,315.1L-320,315.1z"/>
			</g>
		</g>
		<g>
			<g>
				<path fill="#2F353A" d="M-320.2,315.8c-0.1-0.1-0.2,0.1-0.1,0.2c1.2,0.9,2.6,1.5,3.6,2.5c0.1,0.1,0.2,0,0.1-0.1
					C-317.5,317.3-319,316.7-320.2,315.8L-320.2,315.8z"/>
			</g>
		</g>
		<g>
			<g>
				<path fill="#2F353A" d="M-320.6,316.3c-0.1-0.1-0.2,0.1-0.1,0.1c0.9,0.8,2.1,1.3,3,2.1c0.1,0.1,0.2-0.1,0.1-0.1
					C-318.5,317.6-319.7,317.2-320.6,316.3L-320.6,316.3z"/>
			</g>
		</g>
		<g>
			<g>
				<path fill="#2F353A" d="M-321,317c-0.1-0.1-0.2,0.1-0.1,0.2c1.1,0.7,2.2,1.3,3.3,2c0.1,0.1,0.2-0.1,0.1-0.2
					C-318.8,318.3-319.9,317.7-321,317L-321,317z"/>
			</g>
		</g>
		<g>
			<g>
				<path fill="#2F353A" d="M-321.5,317.7c-0.1-0.1-0.2,0.1-0.1,0.2c1,0.8,2.1,1.4,3.3,2c0.1,0.1,0.2-0.1,0.1-0.2
					C-319.4,319.1-320.5,318.5-321.5,317.7L-321.5,317.7z"/>
			</g>
		</g>
		<g>
			<g>
				<path fill="#2F353A" d="M-321.9,318.3c-0.1-0.1-0.2,0.1-0.1,0.2c1.1,0.7,2.2,1.3,3.3,1.8c0.1,0.1,0.2-0.1,0.1-0.2
					C-319.7,319.6-320.8,319-321.9,318.3L-321.9,318.3z"/>
			</g>
		</g>
		<g>
			<g>
				<path fill="#2F353A" d="M-322.3,318.8c-0.1-0.1-0.2,0.1-0.1,0.1c1.1,1,2.4,1.5,3.6,2.3c0.1,0.1,0.2-0.1,0.1-0.2
					C-319.9,320.3-321.3,319.7-322.3,318.8L-322.3,318.8z"/>
			</g>
		</g>
		<g>
			<g>
				<path fill="#2F353A" d="M-322.8,319.6c-0.1-0.1-0.2,0.1-0.1,0.2c1.1,0.8,2.3,1.6,3.6,2.2c0.1,0.1,0.2-0.1,0.1-0.2
					C-320.5,321.2-321.7,320.4-322.8,319.6L-322.8,319.6z"/>
			</g>
		</g>
		<g>
			<g>
				<path fill="#2F353A" d="M-323.2,320.2c-0.1-0.1-0.2,0.1-0.1,0.2c1.2,0.8,2.4,1.6,3.6,2.5c0.1,0.1,0.2-0.1,0.1-0.2
					C-320.7,321.8-322,321-323.2,320.2L-323.2,320.2z"/>
			</g>
		</g>
		<g>
			<g>
				<path fill="#2F353A" d="M-323.5,320.9c-0.1-0.1-0.2,0-0.1,0.1c0.8,1,2.1,1.4,3.1,2.1c0.1,0.1,0.2-0.1,0.1-0.2
					C-321.5,322.3-322.7,321.9-323.5,320.9L-323.5,320.9z"/>
			</g>
		</g>
		<g>
			<g>
				<path fill="#2F353A" d="M-324.1,321.4c-0.1,0-0.2,0.2-0.1,0.2c0.6,0.2,1,0.9,1.6,1.2c0.6,0.4,1.3,0.7,1.9,1
					c0.1,0.1,0.2-0.1,0.1-0.2c-0.8-0.3-1.6-0.6-2.2-1.2C-323.2,322-323.6,321.6-324.1,321.4L-324.1,321.4z"/>
			</g>
		</g>
		<g>
			<g>
				<path fill="#2F353A" d="M-324.2,322.2c-0.1-0.1-0.3,0-0.2,0.1c0.8,1.1,2.1,1.5,3.2,2.2c0.1,0.1,0.2-0.1,0.1-0.2
					C-322.2,323.6-323.5,323.2-324.2,322.2L-324.2,322.2z"/>
			</g>
		</g>
		<g>
			<g>
				<path fill="#2F353A" d="M-324.8,322.9c-0.1-0.1-0.2,0-0.1,0.1c0.5,0.5,1,0.9,1.5,1.3c0.6,0.4,1.3,0.6,1.8,1.1
					c0.1,0.1,0.2,0,0.1-0.1c-0.4-0.4-0.9-0.6-1.4-0.9C-323.6,323.9-324.2,323.4-324.8,322.9L-324.8,322.9z"/>
			</g>
		</g>
		<g>
			<g>
				<path fill="#2F353A" d="M-325.3,323.5c-0.1-0.1-0.2,0.1-0.1,0.2c1.2,0.6,2.1,1.6,3.3,2.2c0.1,0.1,0.2-0.1,0.1-0.2
					C-323.3,325.1-324.2,324.2-325.3,323.5L-325.3,323.5z"/>
			</g>
		</g>
		<g>
			<g>
				<path fill="#2F353A" d="M-325.8,324.3c-0.1-0.1-0.2,0-0.1,0.1c0.8,1,2.1,1.6,3.2,2c0.1,0,0.2-0.2,0.1-0.2
					C-323.8,325.9-325,325.3-325.8,324.3L-325.8,324.3z"/>
			</g>
		</g>
		<g>
			<g>
				<path fill="#2F353A" d="M-326.3,325.1c-0.1-0.1-0.2,0.1-0.1,0.2c1.1,0.7,2.2,1.4,3.4,2c0.1,0.1,0.2-0.1,0.1-0.2
					C-324.1,326.5-325.2,325.8-326.3,325.1L-326.3,325.1z"/>
			</g>
		</g>
		<g>
			<g>
				<path fill="#2F353A" d="M-326.7,325.9c-0.1-0.1-0.2,0-0.1,0.1c1,1.1,2.4,1.5,3.7,2.2c0.1,0.1,0.2-0.1,0.1-0.2
					C-324.3,327.4-325.7,327-326.7,325.9L-326.7,325.9z"/>
			</g>
		</g>
		<g>
			<g>
				<path fill="#2F353A" d="M-327.2,326.4c-0.1-0.1-0.2,0.1-0.1,0.2c0.6,0.3,0.9,0.8,1.5,1.2c0.6,0.4,1.3,0.6,1.9,1
					c0.1,0.1,0.2-0.1,0.1-0.2c-0.6-0.4-1.3-0.6-1.9-1C-326.3,327.2-326.7,326.7-327.2,326.4L-327.2,326.4z"/>
			</g>
		</g>
		<g>
			<g>
				<path fill="#2F353A" d="M-327.6,327.1c-0.1-0.1-0.2,0-0.1,0.1c0.9,1,2.3,1.4,3.5,2c0.1,0.1,0.2-0.1,0.1-0.2
					C-325.4,328.4-326.7,328.1-327.6,327.1L-327.6,327.1z"/>
			</g>
		</g>
		<g>
			<g>
				<path fill="#2F353A" d="M-328.4,327.9c-0.1-0.1-0.2,0.1-0.1,0.2c1.2,0.8,2.6,1.4,4,1.9c0.1,0,0.2-0.2,0.1-0.2
					C-325.8,329.2-327.1,328.7-328.4,327.9L-328.4,327.9z"/>
			</g>
		</g>
		<g>
			<g>
				<path fill="#2F353A" d="M-328.6,328.3c-0.1-0.1-0.2,0-0.1,0.1c1,1.2,2.3,1.6,3.7,2.2c0.1,0,0.2-0.1,0.1-0.2
					C-326.3,329.9-327.6,329.4-328.6,328.3L-328.6,328.3z"/>
			</g>
		</g>
		<g>
			<g>
				<path fill="#2F353A" d="M-329.1,329.1c-0.1-0.1-0.2,0-0.1,0.1c1,1.2,2.6,1.6,4,2.2c0.1,0.1,0.2-0.1,0.1-0.2
					C-326.5,330.7-328.1,330.3-329.1,329.1L-329.1,329.1z"/>
			</g>
		</g>
		<g>
			<g>
				<path fill="#2F353A" d="M-329.5,329.8c-0.1-0.1-0.2,0-0.1,0.1c1.1,1.1,2.6,1.5,3.9,2.3c0.1,0.1,0.2-0.1,0.1-0.2
					C-326.9,331.2-328.4,330.9-329.5,329.8L-329.5,329.8z"/>
			</g>
		</g>
		<g>
			<g>
				<path fill="#2F353A" d="M-329.9,330.6c-0.1-0.1-0.2,0.1-0.1,0.1c1.1,1,2.4,1.5,3.7,2.3c0.1,0.1,0.2-0.1,0.1-0.2
					C-327.5,332.1-328.9,331.5-329.9,330.6L-329.9,330.6z"/>
			</g>
		</g>
		<g>
			<g>
				<path fill="#2F353A" d="M-330.5,331.3c-0.1-0.1-0.2,0.1-0.1,0.2c0.6,0.4,1.2,0.9,1.9,1.2c0.8,0.4,1.7,0.6,2.4,1
					c0.1,0.1,0.2-0.1,0.1-0.2c-0.7-0.4-1.5-0.6-2.2-0.9C-329.1,332.3-329.8,331.8-330.5,331.3L-330.5,331.3z"/>
			</g>
		</g>
		<g>
			<g>
				<path fill="#2F353A" d="M-330.9,331.9c-0.1-0.1-0.2,0.1-0.1,0.2c1.2,0.8,2.4,1.5,3.8,2c0.1,0.1,0.2-0.1,0.1-0.2
					C-328.5,333.4-329.7,332.7-330.9,331.9L-330.9,331.9z"/>
			</g>
		</g>
		<g>
			<g>
				<path fill="#2F353A" d="M-331.3,332.7c-0.1-0.1-0.2,0-0.1,0.1c1,1,2.4,1.5,3.8,1.8c0.1,0,0.2-0.2,0.1-0.2
					C-328.9,334.1-330.3,333.7-331.3,332.7L-331.3,332.7z"/>
			</g>
		</g>
		<g>
			<g>
				<path fill="#2F353A" d="M-331.9,333.3c-0.1-0.1-0.2,0.1-0.1,0.2c1.1,0.7,2.3,1.5,3.6,1.7c0.1,0,0.2-0.2,0.1-0.2
					C-329.6,334.8-330.8,334-331.9,333.3L-331.9,333.3z"/>
			</g>
		</g>
	</g>
	<g id="Layer_2">
	</g>
</g>
</svg>
