<?xml version="1.0" ?><!DOCTYPE svg  PUBLIC '-//W3C//DTD SVG 1.1//EN'  'http://www.w3.org/Graphics/SVG/1.1/DTD/svg11.dtd'><svg enable-background="new 0 0 300 300" height="300px" version="1.1" viewBox="0 0 300 300" width="300px" xml:space="preserve" xmlns="http://www.w3.org/2000/svg" xmlns:xlink="http://www.w3.org/1999/xlink"><g id="Layer_1"><g><path d="M138.472,104.88c1.219,1.494,2.143,4.149,2.596,6.002c0.01,0.235,0.097,0.479,0.266,0.694    c1.395,1.778,1.389,4.206,4.069,3.827c2.613-0.369,4.434-3.738,4.963-5.979c0.333-1.413,0.315-2.922,0.51-4.355    c0.112-0.83,2.809-3.962,2.981-2.779c0.09,0.621,0.351,1.385,0.659,1.936c1.418,2.529,3.673,3.749,6.317,4.733    c3.628,1.352,7.704,1.897,10.216,5.168c2.366,3.08,1.477,8.116,1.995,11.762c1.023,7.203,5.696,8.264,12.005,5.641    c0.54-0.225,0.805-0.64,0.698-1.23c-0.498-2.763-3.448-4.263-2.639-7.216c0.938-3.415,3.186-5.943,3.397-9.652    c0.375-6.579-3.252-12.398-8.463-16.285c-5.762-4.298-12.746-4.092-19.548-5.199c-4.082-0.665-6.862-0.282-8.543,2.797    c-0.908-1.615-2.36-2.932-4.271-2.974c-3.154-0.069-2.771,2.217-3.869,4.472c-0.047,0.096-0.061,0.201-0.079,0.304    c-0.886,2.423-2.413,4.729-3.641,6.991C137.783,104.107,138.046,104.633,138.472,104.88z M149.026,98.118    c0.203,1.264,2.106,0.734,1.928-0.513c0.001-0.004,0.004-0.006,0.005-0.011c1.706-5.994,8.322-3.558,12.945-2.941    c7.246,0.967,12.207,2.639,17.162,8.32c5.186,5.946,3.238,11.931,0.59,18.412c-2.048,5.008,0.862,4.588,1.968,8.586    c-2.418,0.989-5.58,2.055-7.393-0.327c-1.166-1.531-1.247-4.021-1.396-5.837c-0.307-3.729-0.06-7.375-2.06-10.69    c-3.993-6.617-15.879-3.699-17.137-12.354c-0.06-0.417-0.563-0.756-0.964-0.734c-3.135,0.173-5.064,1.352-5.729,4.508    c-0.473,2.246-0.216,4.479-1.312,6.592c-0.502,0.968-2.644,3.148-3.393,1.531c-0.365-0.789-0.716-1.422-1.188-2.083    c-0.469-2.015-1.525-4.899-2.854-6.719c1.239-2.216,2.627-4.463,3.483-6.834c0.012-0.032,0.002-0.067,0.01-0.1    c0.176-0.388,0.289-0.699,0.425-1.183C144.881,93.031,148.69,96.024,149.026,98.118z" fill="#2F353A"/><path d="M270.81,127.308c-0.472-22.3-9.039-44.234-22.807-61.624c-8.417-10.632-18.476-19.903-29.238-28.123    c-8.051-6.148-17.822-9.921-27.335-13.158c-7.549-2.568-15.286-4.62-23.08-6.334c1.037-0.712,1.788-1.677,2.107-2.978    c1.608-6.558-8.458-10.698-14.982-12.648c-0.129-0.081-0.27-0.151-0.428-0.208c-0.766-0.275-1.658-0.479-2.621-0.625    c-0.112-0.027-0.227-0.056-0.331-0.081c-0.228-0.055-0.438-0.062-0.64-0.049c-5.834-0.591-13.907,1.003-16.91,5.014    c-4.568,6.1,6.475,9.731,11.604,11.093c-1.148,1.375-1.444,2.906-1.154,4.331c-0.029,0.55-0.06,0.414-0.268,1.647    c-0.344,2.042-0.771,4.071-1.209,6.094c-0.574,2.649-1.147,5.392-2.05,7.976c-6.26-0.183-12.538,0.142-18.758,1.034    c-19.996,2.868-38.084,13.873-51.18,29.028c-25.133,29.086-33.776,74.5-18.393,110.091c4.397,10.175,10.201,19.963,16.955,28.744    c7.146,9.29,16.927,16.17,27.176,21.711c9.954,5.382,21.136,8.32,32.546,9.37c-0.631,2.954-1.233,5.962-1.519,8.949    c-1.657-0.227-3.313-0.466-4.97-0.729c-6.273-0.995-9.572,6.775-6.175,10.153c-12.832,3.626-26.026,10.835-30.203,23.188    c-7.182-0.902-10.084,10.161-2.676,11.649c13.453,2.701,26.854,6.088,40.571,7.089c7.514,0.549,15.055,0.299,22.529-0.604    c7.839-0.945,15.226-3.544,22.963-4.794c7.218-1.168,4.69-11.584-2.02-11.655c-1.827-5.124-3.254-10.576-6.785-14.785    c-1.989-2.371-4.402-4.337-7.068-5.899c2.938-0.07,5.878-0.235,8.818-0.522c12.921-1.26,24.995-5.727,36.776-10.975    c22.323-9.944,43.448-25.773,54.536-48.043C265.585,178.561,271.33,151.919,270.81,127.308z M138.845,8.016    c3.163-2.002,8.7-3.061,12.897-2.454c4.941,1.231,11.798,3.405,14.73,7.608c1.442,2.067-6.092,2.348-6.79,2.354    c-3.297,0.028-6.591-0.505-9.812-1.156C148.005,13.991,134.797,10.578,138.845,8.016z M151.806,47.532    c-6.057-0.014-12.108,0.141-18.153,0.781c-1.269,0.134-1.282,2.136,0,2c10.108-1.072,20.237-0.807,30.373-0.615    c3.013,0.694,5.971,1.544,8.877,2.535c-9.918,0.365-19.872,1.832-29.75,1.913c-1.289,0.011-1.29,2.011,0,2    c11.54-0.095,23.245-2.163,34.833-2.034c3.597,1.451,7.109,3.111,10.55,4.933c-10.495-0.489-21.133-0.83-31.55,0.153    c-1.272,0.12-1.284,2.121,0,2c11.734-1.107,23.746-0.537,35.521,0.036c0.29,0.167,0.584,0.323,0.872,0.492    c1.319,0.821,2.622,1.67,3.907,2.546c-8.651-0.164-17.299-0.703-25.899,0.577c-1.272,0.189-0.729,2.116,0.531,1.929    c9.358-1.393,18.821-0.521,28.234-0.464c0.005,0,0.009-0.002,0.014-0.003c1.433,1.046,2.84,2.125,4.219,3.24    c-7.735,0.191-15.487-0.202-23.232-0.237c-0.52-0.002-0.819,0.323-0.92,0.71c-4.587-1.063-10.365-0.466-14.326-1.082    c-4.858-0.755-7.318-8.863-12.626-8.108c-3.96,0.563-8.399,1.146-12.153,2.598c-0.063,0.005-0.126,0.009-0.189,0.028    c-1.714,0.53-3.354,1.672-4.924,2.512c-1.286,0.688-2.574,1.372-3.868,2.044c-0.767,0.398-1.849,0.63-1.896,0.961    c-0.314-0.136-0.681-0.092-0.972,0.275c-0.034,0.043-0.068,0.087-0.103,0.131c-0.015,0.019-0.018,0.038-0.031,0.057    c-1.794,2.365-2.035,4.783-2.636,7.689c-0.623,3.011-4.753,5.057-7.066,6.613c-3.897,2.624-9.634,6.867-14.718,7.298    c2.578-6,10.289-8.484,10.871-15.624c0.041-0.5-0.488-1.058-1-1c-1.472,0.166-2.913-0.04-4.352-0.133    c0.854-1.056,1.339-2.264,1.479-3.955c0.194-2.344-1.204-4.579,1.439-6.532c1.576-1.165,3.516-1.842,5.157-2.926    c1.442-0.952,2.031-2.635,1.731-4.314c-0.51-2.865-2.133-5.08-2.494-7.55C128.642,46.319,140.301,46.093,151.806,47.532z     M195.152,83.813c7.772-0.001,15.538-0.043,23.3-0.468c1.07,1.285,2.104,2.599,3.101,3.938    c-5.026-0.023-13.696,0.078-18.292,1.193c-0.839-0.605-1.611-1.235-2.253-1.921c-0.404-0.433-0.998-0.327-1.414,0    c-0.32,0.143-0.641,0.286-0.961,0.428c-0.439,0.155-0.713,0.492-0.734,0.964c-0.254,5.497,4.202,7.23,5.808,11.478    c-6.665-0.648-12.259-1.664-15.247-8.848c-1.79-4.302-2.745-7.329-6.853-9.451c1.209-1.715,2.084-2.665,4.821-2.742    c0.369-0.011,0.782-0.255,0.939-0.609c0.091,0.02,0.177,0.045,0.285,0.038c8.416-0.587,16.881-0.505,25.314-0.5    c1.317,1.335,2.601,2.702,3.837,4.107c-7.213,0.345-14.43,0.392-21.651,0.393C193.862,81.813,193.862,83.813,195.152,83.813z     M151.912,228.509c-0.105-0.102-0.21-0.203-0.305-0.309c0.553,0.041,1.104,0.085,1.657,0.124    C152.813,228.386,152.363,228.453,151.912,228.509z M161.523,226.833c-3.711-0.191-7.417-0.439-11.12-0.723    c-0.315-0.947-0.423-1.968-0.438-3.018c5.466,0.799,10.918,1.687,16.386,2.459C164.762,226.025,163.152,226.454,161.523,226.833z     M170.676,224.136c-6.905-0.877-13.773-2.028-20.662-3.036c0.037-0.773,0.083-1.548,0.092-2.306    c9.162,0.066,18.213,1.34,27.269,2.636C175.178,222.419,172.946,223.324,170.676,224.136z M187.35,216.236    c-8.896-1.454-17.652-3.911-26.697-4.423c-1.289-0.073-1.282,1.928,0,2c8.136,0.46,16.034,2.495,24.015,3.959    c-1.334,0.737-2.68,1.445-4.04,2.12c-10.176-1.441-20.326-3.036-30.621-3.101c-0.253-1.936-1.074-3.638-3.356-4.774    c1.48-1.094,4.665-3.44,5.043-3.873c0.712-0.812,1.047-1.733,0.813-2.778c-0.614-2.747-7.354-2.765-9.276-3.12    c-6.284-1.163-12.274-4.222-17.638-7.607c-5.294-3.342-7.034-9.207-12.787-11.869c1.614-6.916,2.379-15.063-2.909-20.553    c-0.565-0.586-1.799-0.184-1.707,0.707c0.264,2.551,0.105,5-0.234,7.491c-5.027-7.345-3.789-17.553-2.15-25.788    c0.748-3.759-0.596-6.564-1.769-10.105c-1.205-3.637,0.015-8.089,0.478-11.788c0.614-4.916-1.902-7.569-5.772-10.226    c-2.597-1.783-5.542-2.982-8.244-4.593c-1.49-0.889-3.44-3.08-0.44-3.216c1.213-0.055,2.476,0.143,3.639,0.473    c0.68,0.193,1.511-0.501,1.23-1.23c-0.832-2.158,0.499-2.545,1.084-4.169c0.007-0.02,0.002-0.036,0.008-0.056    c1.693,1.12,2.949,2.999,4.863,3.568c2.959,0.879,5.764-1.416,8.63-1.796c1.241-0.165,1.96,0,3.215-0.503    c1.503-0.603,4.644,0.091,3.029,1.978c-0.672,0.785-1.411,1.903-0.868,2.963c2.829,5.518,6.309,7.728,11.434,10.91    c6.002,3.727,14.431,6.235,10.061,15.359c-2.842,5.935-4.34,9.894-3.093,16.592c0.362,1.947,1.394,4.666,3.847,4.007    c2.501-0.671,4.25-4.618,5.381-6.599c1.242-2.177,2.696-6.594,4.857-8.451c3.765,4.655,10.193,4.908,15.722,6.677    c4.172,1.334,6.745,6.001,10.833,7.305c-1.395,1.239-3.627,2.898-4.88,3.046c-1.332,0.157-3.856-0.284-4.906,0.848    c-0.798,0.859-0.82,1.965-0.206,2.983c1.465,2.43,2.102,2.289-1.005,4.342c-1.99,1.314-4.347,2.144-6.48,3.196    c-2.533,1.25-5.409,3.347-6.523,6.04c-1.227,2.968-0.646,10.374-3.487,12.148c-4.248,2.655-10.31,0.521-14.505,3.284    c-2.885,1.899,1.126,6.183,3.076,6.819c4.571,1.495,9.143,2.989,13.714,4.484c6.345,2.074,10.545-2.488,16.131-4.568    c5.155-1.92,11.52-1.122,16.931-1.327c3.939-0.149,7.71-0.874,11.274-2.463c0.104,0.836,0.207,1.627,0.222,2.435    c-1.708-0.092-3.418-0.163-5.133-0.181c-1.29-0.014-1.289,1.986,0,2c1.651,0.018,3.299,0.083,4.943,0.169    c-0.057,0.255-0.12,0.513-0.207,0.781c-0.156,0.48,0.177,1.142,0.698,1.229c2.187,0.373,4.112,1.51,6.266,2.01    c0.029,0.541,0.045,1.08,0.039,1.617c-5.745-0.448-11.484-1-17.239-1.307c-1.289-0.068-1.283,1.932,0,2    c5.727,0.305,11.437,0.853,17.152,1.3c-0.118,1.555-0.33,3.1-0.585,4.643c-7.307-0.894-14.621-1.698-21.802-3.406    c-1.254-0.299-1.786,1.63-0.531,1.928c7.021,1.671,14.162,2.477,21.302,3.346c-1.549,1.104-3.114,2.178-4.689,3.227    c-7.773-1.015-15.467-2.621-23.081-4.5c-1.252-0.31-1.783,1.619-0.531,1.928c6.952,1.717,13.972,3.214,21.057,4.244    C189.756,214.783,188.558,215.521,187.35,216.236z M201.304,206.845c0.216-1.354,0.394-2.712,0.499-4.076    c1.435,0.104,2.87,0.199,4.307,0.28C204.54,204.354,202.936,205.618,201.304,206.845z M208.324,201.154    c-2.146-0.097-4.29-0.223-6.432-0.379c0.012-0.861-0.003-1.726-0.082-2.599c-0.055-0.598-0.419-0.926-1-1    c-2.037-0.259-3.794-1.334-5.725-1.885c0.014-0.064,0.019-0.124,0.03-0.188c5.925,0.396,11.817,1.128,17.716,1.833    C211.381,198.394,209.871,199.795,208.324,201.154z M214.569,195.141c-6.427-0.755-12.842-1.589-19.294-2.026    c-0.017-0.759-0.102-1.513-0.195-2.325c7.504-0.589,14.897,0.048,22.265,1.226C216.447,193.081,215.523,194.125,214.569,195.141z     M234.447,156.798c-0.414-0.006-0.828-0.016-1.242-0.026c0.451-0.249,0.917-0.477,1.398-0.684    C234.552,156.325,234.5,156.563,234.447,156.798z M235.093,153.771c-1.988,0.662-3.712,1.688-5.364,2.873    c-0.744-0.035-1.487-0.076-2.23-0.118c-0.219-1.414-0.485-2.817-0.783-4.213c2.889,0,5.777,0,8.666,0    C235.286,152.801,235.19,153.287,235.093,153.771z M235.753,150.313c-3.161,0-6.322,0-9.483,0    c-0.377-1.637-0.772-3.268-1.156-4.899c3.779,0.123,7.539,0.413,11.271,1.049C236.193,147.755,235.98,149.038,235.753,150.313z     M224.653,143.403c-0.27-1.211-0.523-2.424-0.74-3.642c4.412-0.03,8.808,0.052,13.187,0.723c-0.123,1.337-0.271,2.672-0.443,4.002    C232.684,143.816,228.68,143.522,224.653,143.403z M223.876,124.514c4.432,0.353,8.845,0.986,13.293,1.215    c0.164,1.672,0.256,3.361,0.294,5.058c-4.756-0.058-9.509-0.233-14.263-0.359c0.047-1.019,0.125-2.043,0.278-3.08    C223.617,126.406,223.758,125.459,223.876,124.514z M237.484,132.787c-0.007,1.897-0.088,3.802-0.223,5.706    c-4.539-0.671-9.094-0.75-13.669-0.724c-0.252-1.764-0.4-3.542-0.426-5.342C227.939,132.552,232.711,132.729,237.484,132.787z     M224.079,122.53c0.121-1.606,0.119-3.192-0.138-4.727c4.076,0.424,8.152,0.844,12.216,1.383c0.138,0.669,0.272,1.341,0.393,2.017    c0.148,0.833,0.273,1.672,0.385,2.515C232.634,123.483,228.364,122.88,224.079,122.53z M223.416,115.754    c-0.388-1.113-0.945-2.188-1.744-3.21c-0.825-1.056-1.812-2.009-2.861-2.909c5.063,0.743,10.128,1.436,15.251,1.624    c0.622,1.928,1.169,3.887,1.639,5.877C231.613,116.611,227.514,116.186,223.416,115.754z M215.723,107.177    c-0.631-0.484-1.255-0.965-1.852-1.449c-0.398-0.324-0.217-1.908-0.014-3.584c5.766,0.779,11.533,1.5,17.359,1.641    c0.786,1.786,1.51,3.603,2.162,5.451C227.45,108.962,221.597,108.026,215.723,107.177z M214.022,98.152    c-0.242-0.821-0.63-1.561-1.105-2.25c5.097,0.624,10.168,1.43,15.293,1.762c0.731,1.343,1.425,2.707,2.08,4.091    c-5.438-0.189-10.83-0.857-16.219-1.584C214.141,99.334,214.154,98.599,214.022,98.152z M210.871,93.667    c-1.581-1.365-3.5-2.516-5.332-3.673c0.374-0.073,0.73-0.139,1.027-0.166c2.303-0.207,4.618-0.285,6.928-0.363    c3.177-0.107,6.355-0.134,9.534-0.143c1.424,2.026,2.76,4.111,4.004,6.249C221.624,95.147,216.266,94.259,210.871,93.667z     M210.934,75.311c-7.76-0.011-15.541-0.038-23.281,0.502c-0.201,0.014-0.359,0.086-0.498,0.179    c-0.581-2.204-1.824-3.671-3.471-4.649c7.683,0.104,15.369,0.462,23.036,0.144C208.162,72.722,209.564,74,210.934,75.311z     M93.67,215.617c-10.079-6.561-16.946-14.339-23.263-24.461c-5.312-8.511-10.594-17.927-12.871-27.782    c-4.514-19.537-3.471-39.261,2.943-58.28C66.792,86.379,78.9,69.33,95.509,58.458c6.265-4.101,12.961-7,19.904-8.898    c0.01,0.085,0.014,0.165,0.026,0.251c0.425,2.998,4.981,7.281,0.966,9.932c-1.717,1.134-5.138,1.913-6.071,3.982    c-1.691,3.749,0.886,7.751-3.218,10.773c-0.912,0.672-0.379,2.051,0.771,1.828c1.65-0.32,3.701,0.101,5.544,0.132    c-1.312,6.18-9.335,9.013-11.093,15.345c-0.183,0.66,0.324,1.222,0.964,1.266c5.554,0.381,11.768-4.152,16.173-6.959    c2.323-1.479,4.57-3.088,6.695-4.841c3.135-2.586,2.084-6.887,4.157-10.084c2.775-0.118,8.771-4.854,10.925-5.708    c0.067-0.008,0.135-0.016,0.203-0.043c3.092-1.229,6.65-1.646,9.903-2.257c5.24-0.984,7.339,3.98,11.091,6.593    c5.758,4.009,20.735-2.059,22.813,6.692c-3.167,0.333-3.999,1.688-6.011,4.553c-0.286,0.408-0.114,1.165,0.358,1.368    c6.464,2.786,6.543,10.41,11.301,15.104c3.82,3.769,9.184,3.608,14.166,4.065c0.693,0.063,1.077-0.682,0.964-1.266    c-0.485-2.516-1.778-4.138-3.56-5.911c-1.531-1.524-2.441-2.915-2.644-5.125c-0.17-1.865,0.977-0.064,1.051,0.005    c0.026,0.025,0.055,0.048,0.082,0.073c-0.652,0.411-0.934,0.9-0.682,1.488c0.437,1.02,1.77,0.4,1.81-0.542    c1.426,1.111,3.044,2.109,4.564,3.137c-0.755,0.382-0.593,1.818,0.489,1.9c0.768,0.058,1.532,0.133,2.298,0.208    c1.39,1.245,2.42,2.645,2.704,4.392c-1.5-0.204-3-0.407-4.502-0.6c-1.276-0.164-1.261,1.838,0,2    c1.504,0.193,3.006,0.396,4.508,0.601c-0.137,0.929-0.459,1.946-1.011,3.071c-0.185,0.376-0.204,0.916,0.156,1.212    c0.398,0.327,0.802,0.651,1.208,0.974c-0.507,0.52-0.516,1.484,0.373,1.607c0.674,0.093,1.347,0.19,2.021,0.288    c1.897,1.515,3.758,3.083,5.35,4.893c0.431,0.49,0.767,1.018,1.035,1.572c-2.048-0.222-4.096-0.454-6.14-0.716    c-1.276-0.164-1.261,1.838,0,2c2.27,0.292,4.543,0.542,6.818,0.784c0.299,1.544,0.245,3.192,0.104,4.787    c-1.802-0.104-3.608-0.147-5.423-0.071c-1.285,0.054-1.29,2.055,0,2c1.746-0.074,3.484-0.033,5.219,0.063    c0,0.003-0.001,0.007-0.001,0.01c-0.223,2.053-0.416,4.036-0.523,6.001c-1.564-0.035-3.129-0.066-4.694-0.074    c-1.29-0.006-1.289,1.994,0,2c1.539,0.007,3.078,0.039,4.617,0.073c-0.039,1.786,0.022,3.575,0.205,5.4    c-1.106,0.011-2.214,0.021-3.322,0.027c-1.289,0.006-1.29,2.006,0,2c1.193-0.006,2.385-0.02,3.575-0.033    c0.035,0.23,0.059,0.456,0.099,0.687c0.166,0.968,0.365,1.928,0.576,2.883c-1.581-0.025-3.164-0.037-4.75-0.038    c-1.29,0-1.29,2,0,2c1.741,0.001,3.479,0.01,5.213,0.042c0.404,1.658,0.84,3.307,1.257,4.959c-2.156,0-4.313,0-6.47,0    c-1.29,0-1.29,2,0,2c2.319,0,4.639,0,6.958,0c0.319,1.354,0.6,2.719,0.835,4.094c-4.262-0.26-8.521-0.552-12.793-0.594    c-1.29-0.013-1.289,1.987,0,2c4.371,0.043,8.729,0.349,13.089,0.611c0.066,0.53,0.14,1.059,0.184,1.595    c0.054,0.662,0.845,1.369,1.505,0.863c0.975-0.746,1.916-1.501,2.874-2.214c1.221,0.055,2.441,0.095,3.663,0.119    c-0.412,1.693-0.878,3.365-1.391,5.02c-7.979-0.013-15.953-0.082-23.924-0.494c-1.289-0.066-1.283,1.934,0,2    c7.762,0.401,15.528,0.478,23.298,0.493c-0.616,1.822-1.313,3.61-2.053,5.381c-7.921-0.348-15.808-1.295-23.745-1.374    c-1.29-0.013-1.289,1.987,0,2c7.662,0.077,15.276,0.958,22.92,1.333c-0.63,1.407-1.301,2.796-2.01,4.167    c-8.137,0-16.273,0-24.41,0c-1.29,0-1.29,2,0,2c7.773,0,15.547,0,23.32,0c-0.922,1.671-1.882,3.322-2.921,4.935    c-8.145-0.229-16.264-0.98-24.399-1.435c-1.289-0.072-1.282,1.929,0,2c7.694,0.43,15.374,1.118,23.074,1.387    c-0.36,0.526-0.705,1.062-1.078,1.582c-0.599,0.835-1.223,1.649-1.857,2.454c-7.915-1.323-15.862-2.093-23.93-1.435    c-0.181-0.613-0.838-0.933-1.458-0.612c-6.625,3.424-13.986,2.792-21.209,3.067c-5.672,0.216-9.862,1.878-14.672,4.704    c-6.477,3.806-15.282-1.267-21.7-3.364c-1.217-0.398-3.766-3.097-1.726-3.814c1.856-0.653,3.969-0.72,5.905-0.954    c2.611-0.315,6.054-0.48,8.173-2.252c2.906-2.43,2.24-8.441,3.231-11.768c1.913-6.425,11.851-7.71,16.229-12.163    c0.405-0.412,0.355-0.997,0-1.414c-4.168-4.895,1.127-2.474,3.838-4.006c1.717-0.971,4.181-3.063,5.341-4.649    c0.469-0.642-0.17-1.491-0.863-1.505c-4.151-0.087-7.047-5.084-10.626-6.911c-5.439-2.776-13.214-1.767-16.868-7.297    c-0.308-0.467-0.868-0.627-1.368-0.358c-5.311,2.852-5.36,11.894-10.39,15.302c-1.297,0.879-2.008-6.711-2.015-6.798    c-0.384-4.558,2.078-7.984,3.95-11.892c1.942-4.054,0.808-8.489-2.135-11.703c-3.021-3.3-8.482-4.957-12.305-7.193    c-2.592-1.517-4.532-3.137-6.175-5.699c-1.964-3.063,0.222-3.658,1.325-6.287c1.17-2.788-4.082-3.696-5.732-2.897    c-2.869,1.389-6.209,1.564-9.285,2.699c-3.521,1.299-6.112-2.962-9.079-3.905c-0.646-0.206-1.236,0.34-1.266,0.964    c-0.027,0.565-0.167,0.524,0.188,0.175c-0.367,0.361-0.354,0.798-0.158,1.142c-0.639,1.649-1.455,2.238-1.381,3.544    c-2.974-0.357-8.117-0.237-6.348,3.249c3.252,6.409,14.05,5.912,16.22,13.196c0.944,3.169-0.626,7.792-0.855,11.034    c-0.153,2.155,0.233,3.93,0.906,5.961c1.293,3.903,1.51,6.864,0.657,10.982c-1.776,8.582-1.428,19.328,4.67,26.187    c0.471,0.53,1.548,0.293,1.671-0.441c0.394-2.347,0.71-4.646,0.757-6.98c2.74,5.01,1.688,11.577,0.369,16.938    c-0.139,0.566,0.178,1.034,0.699,1.229c5.699,2.142,7.181,7.558,11.705,10.981c3.743,2.833,8.142,4.94,12.472,6.714    c4.164,1.706,8.417,2.299,12.794,3.174c4.935,0.987-1.648,4.039-3.81,6.276c-0.365,0.149-0.64,0.517-0.644,0.931    c0,0.065-0.001,0.131-0.001,0.195c-0.006,0.732,0.632,1.033,1.19,0.935c1.8,0.693,2.7,1.859,3.13,3.288    c-0.354,0.004-0.707,0.001-1.061,0.009c-1.288,0.029-1.291,2.029,0,2c0.465-0.011,0.93-0.008,1.395-0.012    c0.046,0.675,0.048,1.377,0.032,2.094c-4.46-0.638-8.93-1.205-13.427-1.582c-1.286-0.107-1.275,1.893,0,2    c4.479,0.376,8.931,0.939,13.373,1.574c-0.021,1.051-0.011,2.098,0.129,3.092c-10.673-0.851-21.325-2.002-32.002-3.166    c-1.281-0.14-1.268,1.861,0,2c10.859,1.185,21.692,2.353,32.548,3.207c0.107,0.253,0.225,0.501,0.367,0.738    C130.023,230.65,110.201,226.377,93.67,215.617z M158.427,267.118c-5.484,1.572-11.045,2.413-16.774,2.695    c-6.456,0.317-12.801-1.082-19.25-1c-0.966,0.013-0.968,1.513,0,1.5c6.45-0.082,12.793,1.305,19.25,1    c6.091-0.287,12.012-1.208,17.844-2.948c0.131,0.165,0.269,0.324,0.395,0.493c0.335,0.449,0.632,0.922,0.925,1.396    c-14.916,6.024-31.08,4.94-46.714,2.585c-0.946-0.142-1.353,1.303-0.398,1.447c16.087,2.422,32.532,3.475,47.852-2.729    c0.542,1.025,1.027,2.084,1.457,3.173c-9.711,3.351-19.871,4.512-30.11,4.582c-5.672,0.039-11.488-0.192-17.068-1.265    c-4.277-0.822-8.281-2.249-12.682-2.235c-0.967,0.003-0.967,1.503,0,1.5c4.879-0.016,9.237,1.875,14,2.5    c5.806,0.762,11.611,1.028,17.465,0.988c9.799-0.066,19.657-1.444,28.927-4.665c0.617,1.706,1.174,3.44,1.762,5.146    c-5.918,1.14-11.679,3.04-17.663,3.985c-7.5,1.186-15.245,1.096-22.801,0.648c-11.749-0.695-23.373-3.734-34.896-6.15    c4.578-12.554,19.372-19.115,32.439-22.01c8.191,1.242,16.433,2.166,24.695,2.405c2.054,0.647,4.04,1.514,5.887,2.6    c-2.861,0.827-5.718,1.628-8.7,1.98c-4.625,0.547-9.471-0.582-14.114-0.678c-0.968-0.02-0.966,1.48,0,1.5    c4.714,0.097,9.4,0.937,14.114,0.678c3.537-0.193,6.997-1.372,10.401-2.395C156.036,264.803,157.297,265.897,158.427,267.118z     M257.551,148.404c-3.39,24.306-10.971,49.699-28.845,67.279c-12.612,12.404-28.957,20.932-45.442,26.953    c-14.041,5.128-28.499,6.181-43.054,5.171c0.007-0.085,0.013-0.158,0.018-0.219c0.011-0.05,0.029-0.153,0.059-0.356    c0.225-1.508,0.5-3.008,0.776-4.507c0.289-1.564,0.599-3.125,0.919-4.683c6.776-0.138,13.509-0.868,19.991-2.101    c23.164-4.402,46.044-19.737,61.409-37.256c15.244-17.381,21.334-39.386,22.806-62.04c2.247-34.58-19.962-65.085-48.267-82.693    c-13.496-7.887-28.588-13.129-44.097-15.272c1.124-3.421,1.987-7.146,2.537-10.805c3.088,0.551,6.163,1.177,9.225,1.855    c9.673,2.144,19.239,4.856,28.517,8.339c21.274,7.986,39.727,25.887,51.51,45.043    C257.703,102.771,260.699,125.837,257.551,148.404z" fill="#2F353A"/></g></g><g id="Layer_2"/></svg>